<svg width="40" height="40" viewBox="0 0 40 40" fill="none" xmlns="http://www.w3.org/2000/svg">
<rect width="40" height="40" rx="20" fill="#FEF6EC"/>
<path d="M15.7812 26.25C16.9031 26.25 17.8125 25.3406 17.8125 24.2188C17.8125 23.0969 16.9031 22.1875 15.7812 22.1875C14.6594 22.1875 13.75 23.0969 13.75 24.2188C13.75 25.3406 14.6594 26.25 15.7812 26.25Z" stroke="#F39433" stroke-width="1.5" stroke-linecap="round" stroke-linejoin="round"/>
<path d="M24.2188 26.25C25.3406 26.25 26.25 25.3406 26.25 24.2188C26.25 23.0969 25.3406 22.1875 24.2188 22.1875C23.0969 22.1875 22.1875 23.0969 22.1875 24.2188C22.1875 25.3406 23.0969 26.25 24.2188 26.25Z" stroke="#F39433" stroke-width="1.5" stroke-linecap="round" stroke-linejoin="round"/>
<path d="M17.8125 24.2188H22.1875" stroke="#F39433" stroke-width="1.5" stroke-linecap="round" stroke-linejoin="round"/>
<path d="M10.9375 19.375H29.0625" stroke="#F39433" stroke-width="1.5" stroke-linecap="round" stroke-linejoin="round"/>
<path d="M13.125 19.3773L16.9766 13.8773C17.0346 13.7939 17.1121 13.726 17.2023 13.6793C17.2925 13.6326 17.3927 13.6086 17.4942 13.6094C17.5958 13.6102 17.6957 13.6357 17.7851 13.6837C17.8746 13.7318 17.9511 13.8009 18.0078 13.8851L19.4766 16.096C19.5334 16.1831 19.611 16.2546 19.7024 16.3041C19.7938 16.3536 19.8961 16.3795 20 16.3795C20.1039 16.3795 20.2062 16.3536 20.2976 16.3041C20.389 16.2546 20.4666 16.1831 20.5234 16.096L21.9922 13.8851C22.0489 13.8009 22.1254 13.7318 22.2149 13.6837C22.3043 13.6357 22.4042 13.6102 22.5058 13.6094C22.6073 13.6086 22.7075 13.6326 22.7977 13.6793C22.8879 13.726 22.9654 13.7939 23.0234 13.8773L26.875 19.3773" stroke="#F39433" stroke-width="1.5" stroke-linecap="round" stroke-linejoin="round"/>
</svg>
