<svg width="120" height="120" viewBox="0 0 120 120" fill="none" xmlns="http://www.w3.org/2000/svg">
<path d="M60.3004 90.6008C83.9934 90.6008 103.2 71.3938 103.2 47.7008C103.2 24.0078 83.9934 4.80078 60.3004 4.80078C36.6074 4.80078 17.4004 24.0078 17.4004 47.7008C17.4004 71.3938 36.6074 90.6008 60.3004 90.6008Z" fill="#FEECDA"/>
<path d="M81.2347 48.4769L47.6667 47.0113C45.3493 46.9101 43.3887 48.7067 43.2875 51.0241L41.0891 101.376C40.9879 103.694 42.7845 105.654 45.1019 105.755L78.6699 107.221C80.9873 107.322 82.9479 105.526 83.0491 103.208L85.2475 52.8561C85.3487 50.5388 83.5521 48.5781 81.2347 48.4769Z" fill="white" stroke="#F5A14D" stroke-width="2"/>
<path d="M57.1683 38.2181L23.8558 42.6038C20.8989 42.993 18.8175 45.7056 19.2068 48.6624L25.7853 98.6312C26.1746 101.588 28.8871 103.669 31.844 103.28L65.1565 98.8945C68.1133 98.5052 70.1947 95.7927 69.8055 92.8359L63.2269 42.867C62.8377 39.9102 60.1251 37.8288 57.1683 38.2181Z" fill="white" stroke="#F5A14D" stroke-width="2"/>
<path d="M70.662 41.8864C71.1548 41.8216 71.5017 41.3695 71.4368 40.8767C71.3719 40.3839 70.9198 40.037 70.427 40.1018L66.263 40.6501C65.7702 40.7149 65.4233 41.167 65.4881 41.6598C65.553 42.1526 66.0051 42.4995 66.4979 42.4347L70.662 41.8864Z" fill="#FCD0A2"/>
<path d="M56.7839 30.7042C56.719 30.2114 56.2669 29.8645 55.7741 29.9294C55.2813 29.9943 54.9344 30.4464 54.9993 30.9392L55.5475 35.1032C55.6124 35.596 56.0645 35.9429 56.5573 35.8781C57.0501 35.8132 57.397 35.3611 57.3321 34.8683L56.7839 30.7042Z" fill="#FCD0A2"/>
<path d="M66.3079 33.4934C66.6105 33.099 66.5361 32.5341 66.1418 32.2315C65.7474 31.9289 65.1824 32.0033 64.8798 32.3976L62.3231 35.7297C62.0205 36.124 62.0948 36.689 62.4892 36.9916C62.8835 37.2942 63.4485 37.2198 63.7511 36.8255L66.3079 33.4934Z" fill="#FCD0A2"/>
<path d="M58.7657 54.9503L26.6429 59.1793C25.9858 59.2658 25.5233 59.8686 25.6098 60.5257C25.6963 61.1827 26.299 61.6453 26.9561 61.5588L59.0789 57.3297C59.736 57.2432 60.1985 56.6404 60.112 55.9834C60.0255 55.3263 59.4227 54.8638 58.7657 54.9503Z" fill="#FCD0A2"/>
<path d="M60.3321 66.8487L28.2093 71.0777C27.5522 71.1642 27.0897 71.767 27.1762 72.4241C27.2627 73.0812 27.8655 73.5437 28.5225 73.4572L60.6453 69.2282C61.3024 69.1417 61.765 68.5389 61.6784 67.8818C61.5919 67.2247 60.9892 66.7622 60.3321 66.8487Z" fill="#FCD0A2"/>
<path d="M61.8985 78.7471L29.7757 82.9762C29.1186 83.0627 28.6561 83.6655 28.7426 84.3225C28.8291 84.9796 29.4319 85.4422 30.0889 85.3556L62.2117 81.1266C62.8688 81.0401 63.3314 80.4373 63.2449 79.7802C63.1583 79.1232 62.5556 78.6606 61.8985 78.7471Z" fill="#FCD0A2"/>
<path d="M37.3825 62.6097L27.2698 63.941C26.6127 64.0275 26.1502 64.6303 26.2367 65.2874C26.3232 65.9445 26.926 66.407 27.5831 66.3205L37.6958 64.9891C38.3529 64.9026 38.8154 64.2998 38.7289 63.6428C38.6424 62.9857 38.0396 62.5232 37.3825 62.6097Z" fill="#A09F9F"/>
<path d="M38.949 74.5081L28.8362 75.8395C28.1791 75.926 27.7166 76.5288 27.8031 77.1858C27.8896 77.8429 28.4924 78.3054 29.1495 78.2189L39.2622 76.8876C39.9193 76.8011 40.3818 76.1983 40.2953 75.5412C40.2088 74.8841 39.606 74.4216 38.949 74.5081Z" fill="#A09F9F"/>
<path d="M40.5154 86.4026L30.4026 87.734C29.7456 87.8205 29.283 88.4233 29.3695 89.0804C29.456 89.7374 30.0588 90.2 30.7159 90.1135L40.8286 88.7821C41.4857 88.6956 41.9482 88.0928 41.8617 87.4357C41.7752 86.7787 41.1724 86.3161 40.5154 86.4026Z" fill="#A09F9F"/>
</svg>
