<svg width="129" height="40" viewBox="0 0 129 40" fill="none" xmlns="http://www.w3.org/2000/svg">
<g clip-path="url(#clip0_6966_3736)">
<path d="M39.0163 25.2797C39.0163 25.556 38.9974 25.7694 38.9598 25.9201C38.9284 26.0645 38.8844 26.1681 38.8279 26.2308C38.7714 26.2873 38.6866 26.3407 38.5736 26.391C38.4669 26.4349 38.3383 26.4725 38.1876 26.504C38.0432 26.5416 37.8831 26.5699 37.7074 26.5887C37.5378 26.6075 37.3651 26.617 37.1894 26.617C36.7186 26.617 36.3105 26.5573 35.9652 26.438C35.6199 26.3187 35.3343 26.1367 35.1083 25.8918C34.8823 25.6407 34.7159 25.3268 34.6091 24.9502C34.5024 24.5735 34.4491 24.1277 34.4491 23.613V19.3095H33.4415C33.3222 19.3095 33.2311 19.2372 33.1684 19.0929C33.1056 18.9422 33.0742 18.6942 33.0742 18.349C33.0742 18.1669 33.0805 18.0131 33.0931 17.8875C33.1119 17.762 33.137 17.6647 33.1684 17.5956C33.1998 17.5202 33.2374 17.4669 33.2814 17.4355C33.3316 17.4041 33.3881 17.3885 33.4509 17.3885H34.4491V15.5145C34.4491 15.4517 34.4648 15.3952 34.4961 15.345C34.5339 15.2947 34.5966 15.254 34.6845 15.2225C34.7787 15.1849 34.9011 15.1597 35.0518 15.1472C35.2087 15.1284 35.4002 15.119 35.6262 15.119C35.8585 15.119 36.0499 15.1284 36.2006 15.1472C36.3576 15.1597 36.48 15.1849 36.5679 15.2225C36.6558 15.254 36.7186 15.2947 36.7562 15.345C36.7939 15.3952 36.8127 15.4517 36.8127 15.5145V17.3885H38.6396C38.7024 17.3885 38.7557 17.4041 38.7996 17.4355C38.8499 17.4669 38.8907 17.5202 38.9221 17.5956C38.9535 17.6647 38.9754 17.762 38.988 17.8875C39.0069 18.0131 39.0163 18.1669 39.0163 18.349C39.0163 18.6942 38.9849 18.9422 38.9221 19.0929C38.8593 19.2372 38.7683 19.3095 38.649 19.3095H36.8127V23.2551C36.8127 23.7134 36.8849 24.0587 37.0293 24.291C37.1737 24.517 37.4311 24.63 37.8015 24.63C37.9271 24.63 38.0401 24.6206 38.1405 24.6017C38.2409 24.5766 38.3289 24.5515 38.4041 24.5264C38.4858 24.495 38.5517 24.4699 38.6019 24.451C38.6584 24.426 38.7086 24.4134 38.7526 24.4134C38.7903 24.4134 38.8248 24.426 38.8561 24.451C38.8939 24.4699 38.9221 24.5138 38.9409 24.5829C38.9598 24.6457 38.9754 24.7336 38.988 24.8466C39.0069 24.9596 39.0163 25.104 39.0163 25.2797ZM48.0843 26.1367C48.0843 26.2246 48.0529 26.2936 47.9901 26.3438C47.9274 26.3941 47.8269 26.4286 47.6888 26.4475C47.557 26.4725 47.3592 26.4851 47.0956 26.4851C46.8131 26.4851 46.6059 26.4725 46.474 26.4475C46.3485 26.4286 46.2574 26.3941 46.2009 26.3438C46.1507 26.2936 46.1256 26.2246 46.1256 26.1367V25.4681C45.7804 25.8385 45.3848 26.1272 44.9391 26.3345C44.4996 26.5416 44.0099 26.6452 43.4701 26.6452C43.0244 26.6452 42.6131 26.5855 42.2364 26.4662C41.8661 26.3532 41.5427 26.1837 41.2665 25.9577C40.9966 25.7255 40.7863 25.4398 40.6356 25.1008C40.4849 24.7618 40.4096 24.3663 40.4096 23.9143C40.4096 23.4246 40.5038 23.0009 40.6921 22.643C40.8867 22.2789 41.1724 21.9807 41.549 21.7485C41.932 21.5099 42.4059 21.3341 42.971 21.2211C43.536 21.1081 44.192 21.0516 44.9391 21.0516H45.7584V20.5431C45.7584 20.2794 45.7301 20.0502 45.6736 19.8557C45.6234 19.6547 45.5355 19.4884 45.4099 19.3565C45.2906 19.2247 45.1274 19.1274 44.9203 19.0646C44.7194 19.0018 44.4682 18.9705 44.1669 18.9705C43.7714 18.9705 43.4167 19.0144 43.1028 19.1023C42.7952 19.1902 42.5221 19.2875 42.2835 19.3942C42.045 19.501 41.8441 19.5982 41.6809 19.6861C41.5239 19.774 41.3952 19.818 41.2948 19.818C41.2257 19.818 41.1629 19.796 41.1064 19.752C41.0562 19.7081 41.0123 19.6453 40.9746 19.5637C40.9432 19.4821 40.9181 19.3817 40.8993 19.2624C40.8804 19.1431 40.871 19.0112 40.871 18.8669C40.871 18.6722 40.8867 18.5185 40.9181 18.4055C40.9495 18.2925 41.0091 18.192 41.097 18.1041C41.1849 18.01 41.3387 17.9095 41.5584 17.8027C41.7781 17.6897 42.0356 17.5862 42.3306 17.492C42.6257 17.3978 42.9459 17.3225 43.2911 17.266C43.6427 17.2032 44.0037 17.1718 44.3741 17.1718C45.0333 17.1718 45.5951 17.2377 46.0597 17.3696C46.5306 17.4952 46.9166 17.6929 47.218 17.9628C47.5193 18.2265 47.739 18.5687 47.8771 18.9893C48.0153 19.4099 48.0843 19.909 48.0843 20.4866V26.1367ZM45.7584 22.5395H44.8544C44.4714 22.5395 44.1449 22.5677 43.875 22.6242C43.605 22.6807 43.3853 22.7655 43.2158 22.8785C43.0463 22.9915 42.9207 23.1295 42.8391 23.2928C42.7638 23.4497 42.7261 23.6318 42.7261 23.839C42.7261 24.1905 42.836 24.4667 43.0557 24.6677C43.2817 24.8685 43.5925 24.969 43.988 24.969C44.3207 24.969 44.6252 24.8842 44.9014 24.7147C45.1839 24.5452 45.4696 24.2972 45.7584 23.9708V22.5395ZM59.2994 21.7955C59.2994 22.5426 59.2178 23.2143 59.0546 23.8107C58.8914 24.4071 58.6559 24.9156 58.3483 25.3362C58.0407 25.7569 57.6609 26.0802 57.2089 26.3062C56.7631 26.5322 56.2546 26.6452 55.6834 26.6452C55.4009 26.6452 55.1371 26.617 54.8924 26.5605C54.6475 26.5102 54.4121 26.4255 54.1861 26.3062C53.9664 26.1869 53.7466 26.0362 53.5269 25.8542C53.3134 25.6721 53.0937 25.4524 52.8677 25.195V26.1085C52.8677 26.1775 52.8489 26.2371 52.8112 26.2873C52.7798 26.3313 52.7233 26.369 52.6417 26.4003C52.5664 26.4317 52.4628 26.4537 52.3309 26.4662C52.1991 26.4788 52.039 26.4851 51.8507 26.4851C51.6561 26.4851 51.4929 26.4788 51.361 26.4662C51.2354 26.4537 51.1319 26.4317 51.0502 26.4003C50.9749 26.369 50.9216 26.3313 50.8901 26.2873C50.8588 26.2371 50.8431 26.1775 50.8431 26.1085V13.7252C50.8431 13.6625 50.8619 13.606 50.8996 13.5557C50.9372 13.5055 51 13.4647 51.0879 13.4333C51.1821 13.3957 51.3045 13.3675 51.4551 13.3486C51.6059 13.3297 51.7973 13.3203 52.0296 13.3203C52.2619 13.3203 52.4534 13.3297 52.604 13.3486C52.7547 13.3675 52.874 13.3957 52.9619 13.4333C53.0561 13.4647 53.1219 13.5055 53.1596 13.5557C53.1973 13.606 53.2161 13.6625 53.2161 13.7252V18.3677C53.4296 18.1543 53.643 17.9722 53.8565 17.8216C54.0699 17.671 54.2834 17.5485 54.4968 17.4543C54.7103 17.3539 54.93 17.2817 55.156 17.2377C55.382 17.1938 55.6206 17.1718 55.8716 17.1718C56.4932 17.1718 57.0205 17.2974 57.4537 17.5485C57.8869 17.7933 58.2384 18.1261 58.5084 18.5467C58.7846 18.9673 58.9855 19.4601 59.1111 20.0252C59.2366 20.5839 59.2994 21.174 59.2994 21.7955ZM56.8416 21.965C56.8416 21.6072 56.8134 21.2619 56.7569 20.9292C56.7066 20.5965 56.6156 20.3014 56.4838 20.044C56.3519 19.7866 56.1793 19.5825 55.9659 19.4319C55.7586 19.275 55.495 19.1965 55.1749 19.1965C55.0179 19.1965 54.8641 19.2185 54.7134 19.2624C54.5627 19.3063 54.4058 19.3817 54.2426 19.4884C54.0856 19.5951 53.9224 19.7332 53.7529 19.9027C53.5834 20.0722 53.4044 20.2825 53.2161 20.5337V23.321C53.5489 23.748 53.8659 24.0744 54.1672 24.3004C54.4749 24.5201 54.795 24.63 55.1277 24.63C55.4354 24.63 55.6959 24.5515 55.9094 24.3945C56.1228 24.2376 56.2986 24.0336 56.4367 23.7825C56.5811 23.5313 56.6846 23.2457 56.7474 22.9255C56.8102 22.6054 56.8416 22.2852 56.8416 21.965ZM69.554 26.1085C69.554 26.1712 69.5383 26.2277 69.5069 26.278C69.4755 26.3219 69.419 26.3595 69.3374 26.391C69.2621 26.4223 69.1585 26.4443 69.0266 26.4569C68.9011 26.4757 68.741 26.4851 68.5464 26.4851C68.3392 26.4851 68.1697 26.4757 68.0379 26.4569C67.9123 26.4443 67.8119 26.4223 67.7365 26.391C67.6612 26.3595 67.6079 26.3219 67.5764 26.278C67.5451 26.2277 67.5294 26.1712 67.5294 26.1085V25.1385C67.0648 25.6407 66.5908 26.0174 66.1074 26.2685C65.6303 26.5196 65.1344 26.6452 64.6196 26.6452C64.042 26.6452 63.5554 26.551 63.1599 26.3627C62.7707 26.1743 62.4537 25.917 62.2089 25.5905C61.9703 25.264 61.7976 24.8874 61.6909 24.4605C61.5905 24.0273 61.5402 23.4905 61.5402 22.8502V17.7086C61.5402 17.6458 61.5559 17.5925 61.5874 17.5485C61.625 17.4983 61.6878 17.4575 61.7756 17.4261C61.8699 17.3947 61.9923 17.3727 62.1429 17.3602C62.2999 17.3413 62.4914 17.3319 62.7174 17.3319C62.9496 17.3319 63.1411 17.3413 63.2918 17.3602C63.4424 17.3727 63.5617 17.3947 63.6496 17.4261C63.7438 17.4575 63.8097 17.4983 63.8474 17.5485C63.8851 17.5925 63.9039 17.6458 63.9039 17.7086V22.4547C63.9039 22.8942 63.9321 23.23 63.9886 23.4623C64.0451 23.6946 64.1299 23.8955 64.2429 24.065C64.3621 24.2282 64.5097 24.3569 64.6855 24.451C64.8675 24.539 65.0779 24.5829 65.3164 24.5829C65.6177 24.5829 65.9191 24.473 66.2204 24.2533C66.5281 24.0336 66.8545 23.7134 67.1998 23.2928V17.7086C67.1998 17.6458 67.2155 17.5925 67.2469 17.5485C67.2845 17.4983 67.3473 17.4575 67.4352 17.4261C67.5294 17.3947 67.6518 17.3727 67.8024 17.3602C67.9531 17.3413 68.1446 17.3319 68.3769 17.3319C68.6091 17.3319 68.8006 17.3413 68.9513 17.3602C69.102 17.3727 69.2213 17.3947 69.3091 17.4261C69.3971 17.4575 69.4598 17.4983 69.4975 17.5485C69.5351 17.5925 69.554 17.6458 69.554 17.7086V26.1085ZM74.7044 26.1085C74.7044 26.1712 74.6859 26.2277 74.648 26.278C74.6101 26.3219 74.5444 26.3595 74.4501 26.391C74.3623 26.4223 74.243 26.4443 74.0923 26.4569C73.9416 26.4757 73.7501 26.4851 73.518 26.4851C73.2859 26.4851 73.0944 26.4757 72.9437 26.4569C72.793 26.4443 72.6709 26.4223 72.5766 26.391C72.4887 26.3595 72.4259 26.3219 72.388 26.278C72.3501 26.2277 72.3316 26.1712 72.3316 26.1085V13.7252C72.3316 13.6625 72.3501 13.606 72.388 13.5557C72.4259 13.5055 72.4887 13.4647 72.5766 13.4333C72.6709 13.3957 72.793 13.3675 72.9437 13.3486C73.0944 13.3297 73.2859 13.3203 73.518 13.3203C73.7501 13.3203 73.9416 13.3297 74.0923 13.3486C74.243 13.3675 74.3623 13.3957 74.4501 13.4333C74.5444 13.4647 74.6101 13.5055 74.648 13.5557C74.6859 13.606 74.7044 13.6625 74.7044 13.7252V26.1085ZM85.223 21.6637C85.223 21.9525 85.1573 22.1659 85.0251 22.304C84.9001 22.4421 84.7244 22.5112 84.498 22.5112H79.3851C79.3851 22.869 79.4259 23.1955 79.5073 23.4905C79.5951 23.7793 79.7301 24.0273 79.9123 24.2345C80.1001 24.4354 80.3387 24.5892 80.628 24.6959C80.923 24.8026 81.2744 24.856 81.6823 24.856C82.0966 24.856 82.4609 24.8277 82.7751 24.7712C83.0887 24.7085 83.3587 24.6425 83.5844 24.5735C83.8173 24.4982 84.0087 24.4322 84.1594 24.3757C84.3101 24.313 84.4323 24.2815 84.5266 24.2815C84.583 24.2815 84.6301 24.2941 84.6673 24.3192C84.7051 24.338 84.7366 24.3757 84.7616 24.4322C84.7866 24.4887 84.8023 24.5703 84.8087 24.6771C84.8216 24.7775 84.828 24.9062 84.828 25.0632C84.828 25.2012 84.8244 25.3205 84.818 25.421C84.8123 25.5152 84.8023 25.5967 84.7901 25.6658C84.7773 25.7349 84.7587 25.7945 84.7337 25.8447C84.7087 25.8887 84.6737 25.9327 84.6301 25.9766C84.5923 26.0205 84.4823 26.0802 84.3001 26.1555C84.118 26.2308 83.8859 26.3062 83.6037 26.3815C83.3209 26.4506 82.998 26.5102 82.6337 26.5605C82.2694 26.617 81.8801 26.6452 81.4659 26.6452C80.7187 26.6452 80.063 26.551 79.498 26.3627C78.9387 26.1743 78.4716 25.8887 78.0944 25.5057C77.718 25.1228 77.4351 24.6394 77.2473 24.0555C77.0651 23.4717 76.9744 22.7874 76.9744 22.0027C76.9744 21.2556 77.0716 20.5839 77.2659 19.9875C77.4609 19.3848 77.743 18.8763 78.1137 18.462C78.4837 18.0413 78.933 17.7212 79.4601 17.5015C79.9937 17.2817 80.593 17.1718 81.2587 17.1718C81.9616 17.1718 82.5616 17.2754 83.0573 17.4826C83.5594 17.6897 83.9709 17.9785 84.2909 18.349C84.6109 18.713 84.8466 19.1462 84.9973 19.6485C85.148 20.1507 85.223 20.6969 85.223 21.287V21.6637ZM82.9259 20.9857C82.9444 20.3202 82.8094 19.7992 82.5209 19.4225C82.238 19.0395 81.7987 18.848 81.2023 18.848C80.9009 18.848 80.6373 18.9045 80.4116 19.0175C80.1916 19.1305 80.0066 19.2843 79.8559 19.479C79.7116 19.6673 79.598 19.8933 79.5166 20.157C79.4416 20.4144 79.3973 20.6906 79.3851 20.9857H82.9259ZM92.9637 18.4902C92.9637 18.7162 92.9573 18.9014 92.9444 19.0458C92.9323 19.1902 92.913 19.3032 92.888 19.3848C92.863 19.4664 92.8287 19.5229 92.7844 19.5543C92.7466 19.5857 92.6966 19.6014 92.6337 19.6014C92.5837 19.6014 92.5273 19.592 92.4644 19.5731C92.4016 19.548 92.3294 19.5229 92.248 19.4978C92.1723 19.4727 92.088 19.4507 91.9937 19.4319C91.8994 19.4067 91.7959 19.3942 91.683 19.3942C91.5509 19.3942 91.4194 19.4225 91.2873 19.479C91.1551 19.5292 91.0173 19.6108 90.873 19.7238C90.7351 19.8368 90.5873 19.9875 90.4301 20.1758C90.2794 20.3642 90.1166 20.5965 89.9409 20.8727V26.1085C89.9409 26.1712 89.9216 26.2277 89.8844 26.278C89.8466 26.3219 89.7809 26.3595 89.6866 26.391C89.5987 26.4223 89.4794 26.4443 89.3287 26.4569C89.178 26.4757 88.9866 26.4851 88.7544 26.4851C88.5216 26.4851 88.3301 26.4757 88.1794 26.4569C88.0294 26.4443 87.9066 26.4223 87.8123 26.391C87.7244 26.3595 87.6616 26.3219 87.6244 26.278C87.5866 26.2277 87.568 26.1712 87.568 26.1085V17.7086C87.568 17.6458 87.583 17.5925 87.6144 17.5485C87.6459 17.4983 87.7023 17.4575 87.7844 17.4261C87.8659 17.3947 87.9694 17.3727 88.0951 17.3602C88.2266 17.3413 88.3901 17.3319 88.5844 17.3319C88.7859 17.3319 88.9523 17.3413 89.0837 17.3602C89.2159 17.3727 89.3159 17.3947 89.3851 17.4261C89.4601 17.4575 89.5137 17.4983 89.5451 17.5485C89.5766 17.5925 89.5923 17.6458 89.5923 17.7086V18.7539C89.8123 18.44 90.0194 18.1826 90.2137 17.9817C90.4087 17.7745 90.5937 17.6113 90.7694 17.492C90.9451 17.3727 91.1209 17.2911 91.2966 17.2472C91.4723 17.197 91.648 17.1718 91.8237 17.1718C91.9059 17.1718 91.9937 17.1781 92.088 17.1907C92.1816 17.197 92.2794 17.2127 92.3794 17.2377C92.4801 17.2566 92.568 17.2817 92.643 17.3131C92.7187 17.3382 92.7723 17.3665 92.8037 17.3978C92.8409 17.4292 92.8659 17.4637 92.8787 17.5015C92.8973 17.5391 92.913 17.5925 92.9259 17.6615C92.9387 17.7243 92.948 17.8216 92.9544 17.9535C92.9601 18.0852 92.9637 18.2642 92.9637 18.4902ZM101.532 26.1367C101.532 26.2246 101.501 26.2936 101.438 26.3438C101.376 26.3941 101.275 26.4286 101.137 26.4475C101.005 26.4725 100.807 26.4851 100.544 26.4851C100.261 26.4851 100.054 26.4725 99.9223 26.4475C99.7966 26.4286 99.7058 26.3941 99.6494 26.3438C99.5987 26.2936 99.5737 26.2246 99.5737 26.1367V25.4681C99.2287 25.8385 98.833 26.1272 98.3873 26.3345C97.948 26.5416 97.458 26.6452 96.918 26.6452C96.4723 26.6452 96.0616 26.5855 95.6844 26.4662C95.3144 26.3532 94.9909 26.1837 94.7144 25.9577C94.4444 25.7255 94.2344 25.4398 94.0837 25.1008C93.933 24.7618 93.858 24.3663 93.858 23.9143C93.858 23.4246 93.9516 23.0009 94.1401 22.643C94.3351 22.2789 94.6201 21.9807 94.9973 21.7485C95.3801 21.5099 95.8544 21.3341 96.4194 21.2211C96.9844 21.1081 97.6401 21.0516 98.3873 21.0516H99.2066V20.5431C99.2066 20.2794 99.178 20.0502 99.1216 19.8557C99.0716 19.6547 98.9837 19.4884 98.858 19.3565C98.7387 19.2247 98.5759 19.1274 98.3687 19.0646C98.1673 19.0018 97.9166 18.9705 97.6151 18.9705C97.2194 18.9705 96.8651 19.0144 96.5509 19.1023C96.243 19.1902 95.9701 19.2875 95.7316 19.3942C95.493 19.501 95.2923 19.5982 95.1287 19.6861C94.9723 19.774 94.8437 19.818 94.743 19.818C94.6737 19.818 94.6109 19.796 94.5544 19.752C94.5044 19.7081 94.4601 19.6453 94.423 19.5637C94.3916 19.4821 94.3666 19.3817 94.3473 19.2624C94.3287 19.1431 94.3194 19.0112 94.3194 18.8669C94.3194 18.6722 94.3351 18.5185 94.3666 18.4055C94.3973 18.2925 94.4573 18.192 94.5451 18.1041C94.633 18.01 94.7866 17.9095 95.0066 17.8027C95.2266 17.6897 95.4837 17.5862 95.7787 17.492C96.0737 17.3978 96.3937 17.3225 96.7394 17.266C97.0909 17.2032 97.4516 17.1718 97.8223 17.1718C98.4816 17.1718 99.043 17.2377 99.508 17.3696C99.9787 17.4952 100.364 17.6929 100.666 17.9628C100.967 18.2265 101.187 18.5687 101.325 18.9893C101.464 19.4099 101.532 19.909 101.532 20.4866V26.1367ZM99.2066 22.5395H98.3023C97.9194 22.5395 97.593 22.5677 97.323 22.6242C97.053 22.6807 96.8337 22.7655 96.6637 22.8785C96.4944 22.9915 96.3687 23.1295 96.2873 23.2928C96.2123 23.4497 96.1744 23.6318 96.1744 23.839C96.1744 24.1905 96.2844 24.4667 96.5037 24.6677C96.7301 24.8685 97.0409 24.969 97.4359 24.969C97.7687 24.969 98.073 24.8842 98.3494 24.7147C98.6323 24.5452 98.918 24.2972 99.2066 23.9708V22.5395ZM110.205 23.7354C110.205 24.2125 110.114 24.6331 109.932 24.9972C109.756 25.3614 109.505 25.6658 109.179 25.9107C108.852 26.1555 108.466 26.3376 108.02 26.4569C107.574 26.5824 107.091 26.6452 106.57 26.6452C106.256 26.6452 105.955 26.6201 105.666 26.5699C105.384 26.5259 105.129 26.4694 104.903 26.4003C104.677 26.325 104.489 26.2497 104.338 26.1743C104.188 26.099 104.078 26.03 104.009 25.9672C103.939 25.8981 103.887 25.7945 103.849 25.6564C103.811 25.512 103.792 25.3017 103.792 25.0255C103.792 24.8435 103.799 24.699 103.811 24.5923C103.824 24.4793 103.842 24.3914 103.867 24.3287C103.892 24.2596 103.924 24.2157 103.962 24.1968C103.999 24.1717 104.047 24.1592 104.103 24.1592C104.172 24.1592 104.272 24.2 104.404 24.2815C104.542 24.3569 104.712 24.4417 104.913 24.5358C105.114 24.63 105.346 24.7179 105.609 24.7995C105.879 24.8811 106.184 24.9219 106.523 24.9219C106.737 24.9219 106.925 24.9 107.088 24.856C107.257 24.812 107.402 24.7492 107.521 24.6677C107.647 24.586 107.741 24.4825 107.804 24.3569C107.867 24.2313 107.898 24.087 107.898 23.9237C107.898 23.7354 107.838 23.5753 107.719 23.4435C107.606 23.3053 107.452 23.186 107.257 23.0856C107.069 22.9852 106.852 22.891 106.608 22.8031C106.369 22.7152 106.122 22.6179 105.864 22.5112C105.613 22.4045 105.364 22.282 105.12 22.144C104.882 22.0058 104.664 21.8363 104.47 21.6355C104.282 21.4345 104.128 21.1928 104.009 20.9103C103.896 20.6278 103.839 20.2888 103.839 19.8933C103.839 19.4915 103.918 19.1242 104.074 18.7915C104.232 18.4525 104.457 18.1637 104.753 17.9252C105.048 17.6866 105.406 17.5015 105.826 17.3696C106.253 17.2377 106.73 17.1718 107.257 17.1718C107.521 17.1718 107.775 17.1907 108.02 17.2283C108.272 17.266 108.497 17.3131 108.698 17.3696C108.899 17.4261 109.069 17.4889 109.207 17.558C109.345 17.6207 109.442 17.6772 109.499 17.7275C109.562 17.7714 109.605 17.8185 109.631 17.8687C109.656 17.9126 109.674 17.9691 109.687 18.0382C109.699 18.101 109.709 18.1826 109.715 18.283C109.728 18.3772 109.734 18.4965 109.734 18.6409C109.734 18.8104 109.728 18.9485 109.715 19.0552C109.709 19.162 109.694 19.2467 109.668 19.3095C109.649 19.3722 109.621 19.4162 109.584 19.4413C109.546 19.4601 109.502 19.4695 109.452 19.4695C109.395 19.4695 109.307 19.4382 109.188 19.3754C109.069 19.3063 108.918 19.2341 108.736 19.1588C108.56 19.0835 108.353 19.0144 108.114 18.9516C107.882 18.8825 107.615 18.848 107.314 18.848C107.101 18.848 106.915 18.87 106.759 18.914C106.602 18.9579 106.473 19.0207 106.372 19.1023C106.272 19.1839 106.197 19.2812 106.147 19.3942C106.096 19.501 106.071 19.6171 106.071 19.7426C106.071 19.9372 106.131 20.1005 106.25 20.2323C106.369 20.3642 106.526 20.4803 106.721 20.5807C106.915 20.6812 107.135 20.7753 107.38 20.8632C107.631 20.9511 107.882 21.0485 108.133 21.1552C108.391 21.2556 108.642 21.3749 108.887 21.513C109.138 21.6511 109.361 21.8206 109.555 22.0215C109.75 22.2224 109.907 22.4641 110.026 22.7466C110.145 23.0228 110.205 23.3525 110.205 23.7354ZM119.537 26.1367C119.537 26.2246 119.505 26.2936 119.442 26.3438C119.38 26.3941 119.279 26.4286 119.142 26.4475C119.009 26.4725 118.812 26.4851 118.548 26.4851C118.265 26.4851 118.058 26.4725 117.927 26.4475C117.801 26.4286 117.71 26.3941 117.654 26.3438C117.603 26.2936 117.578 26.2246 117.578 26.1367V25.4681C117.233 25.8385 116.837 26.1272 116.392 26.3345C115.952 26.5416 115.462 26.6452 114.922 26.6452C114.477 26.6452 114.066 26.5855 113.689 26.4662C113.319 26.3532 112.995 26.1837 112.719 25.9577C112.449 25.7255 112.239 25.4398 112.088 25.1008C111.937 24.7618 111.862 24.3663 111.862 23.9143C111.862 23.4246 111.956 23.0009 112.144 22.643C112.339 22.2789 112.624 21.9807 113.002 21.7485C113.384 21.5099 113.859 21.3341 114.424 21.2211C114.989 21.1081 115.644 21.0516 116.392 21.0516H117.211V20.5431C117.211 20.2794 117.182 20.0502 117.126 19.8557C117.076 19.6547 116.988 19.4884 116.862 19.3565C116.743 19.2247 116.58 19.1274 116.373 19.0646C116.172 19.0018 115.921 18.9705 115.619 18.9705C115.224 18.9705 114.869 19.0144 114.555 19.1023C114.247 19.1902 113.974 19.2875 113.736 19.3942C113.497 19.501 113.297 19.5982 113.133 19.6861C112.977 19.774 112.847 19.818 112.747 19.818C112.678 19.818 112.615 19.796 112.559 19.752C112.509 19.7081 112.464 19.6453 112.427 19.5637C112.396 19.4821 112.371 19.3817 112.352 19.2624C112.333 19.1431 112.324 19.0112 112.324 18.8669C112.324 18.6722 112.339 18.5185 112.371 18.4055C112.402 18.2925 112.462 18.192 112.549 18.1041C112.637 18.01 112.791 17.9095 113.011 17.8027C113.231 17.6897 113.488 17.5862 113.783 17.492C114.078 17.3978 114.398 17.3225 114.744 17.266C115.095 17.2032 115.456 17.1718 115.827 17.1718C116.486 17.1718 117.047 17.2377 117.512 17.3696C117.983 17.4952 118.369 17.6929 118.67 17.9628C118.972 18.2265 119.192 18.5687 119.329 18.9893C119.468 19.4099 119.537 19.909 119.537 20.4866V26.1367ZM117.211 22.5395H116.307C115.924 22.5395 115.597 22.5677 115.327 22.6242C115.057 22.6807 114.838 22.7655 114.668 22.8785C114.499 22.9915 114.373 23.1295 114.292 23.2928C114.217 23.4497 114.179 23.6318 114.179 23.839C114.179 24.1905 114.289 24.4667 114.508 24.6677C114.734 24.8685 115.045 24.969 115.44 24.969C115.773 24.969 116.077 24.8842 116.354 24.7147C116.637 24.5452 116.922 24.2972 117.211 23.9708V22.5395Z" fill="#F2F2F2"/>
<path d="M8.57227 10V18.5714H21.4294C23.7963 18.5714 25.7151 16.6526 25.7151 14.2857C25.7151 11.9188 23.7963 10 21.4294 10H8.57227Z" fill="#F2F2F2"/>
<path d="M8.57227 21.4297L8.57234 25.7155C8.57234 28.0824 10.4911 30.0012 12.8581 30.0012H25.7152V25.7155C25.7152 23.3485 23.7963 21.4297 21.4294 21.4297H8.57227Z" fill="#F2F2F2"/>
</g>
<defs>
<clipPath id="clip0_6966_3736">
<rect width="128.571" height="40" fill="white"/>
</clipPath>
</defs>
</svg>
