<svg width="20" height="20" viewBox="0 0 20 20" fill="none" xmlns="http://www.w3.org/2000/svg">
<path d="M10 15C13.3137 15 16 12.3137 16 9C16 5.68629 13.3137 3 10 3C6.68629 3 4 5.68629 4 9C4 12.3137 6.68629 15 10 15Z" stroke="#595858" stroke-width="1.5" stroke-linecap="round" stroke-linejoin="round"/>
<path d="M8 7.75C8 7.88807 7.88807 8 7.75 8C7.61193 8 7.5 7.88807 7.5 7.75C7.5 7.61193 7.61193 7.5 7.75 7.5C7.88807 7.5 8 7.61193 8 7.75Z" fill="#595858" stroke="#595858" stroke-width="1.5"/>
<path d="M12.25 8.75C12.8023 8.75 13.25 8.30228 13.25 7.75C13.25 7.19772 12.8023 6.75 12.25 6.75C11.6977 6.75 11.25 7.19772 11.25 7.75C11.25 8.30228 11.6977 8.75 12.25 8.75Z" fill="#595858"/>
<path d="M12.3314 11.6118C12.0502 11.2646 11.6949 10.9845 11.2916 10.7922C10.8883 10.5998 10.447 10.5 10.0002 10.5C9.55334 10.5 9.11213 10.5998 8.7088 10.7922C8.30546 10.9845 7.95019 11.2646 7.66895 11.6118" stroke="#595858" stroke-width="1.5" stroke-linecap="round" stroke-linejoin="round"/>
</svg>
