<svg width="20" height="20" viewBox="0 0 20 20" fill="none" xmlns="http://www.w3.org/2000/svg">
<path d="M8 6.25V5" stroke="#595858" stroke-width="1.5" stroke-linecap="round" stroke-linejoin="round"/>
<path d="M12 15V13.75" stroke="#595858" stroke-width="1.5" stroke-linecap="round" stroke-linejoin="round"/>
<path d="M6.25 8H5" stroke="#595858" stroke-width="1.5" stroke-linecap="round" stroke-linejoin="round"/>
<path d="M15 12H13.75" stroke="#595858" stroke-width="1.5" stroke-linecap="round" stroke-linejoin="round"/>
<path d="M6.18694 10.2734L5.73069 10.7297C5.26159 11.1988 4.99805 11.835 4.99805 12.4984C4.99805 13.1618 5.26159 13.7981 5.73069 14.2672C6.19979 14.7363 6.83603 14.9998 7.49944 14.9998C8.16285 14.9998 8.79909 14.7363 9.26819 14.2672L9.72444 13.8109" stroke="#595858" stroke-width="1.5" stroke-linecap="round" stroke-linejoin="round"/>
<path d="M13.8129 9.72639L14.2691 9.27014C14.7382 8.80104 15.0018 8.1648 15.0018 7.50139C15.0018 6.83798 14.7382 6.20174 14.2691 5.73264C13.8 5.26354 13.1638 5 12.5004 5C11.837 5 11.2007 5.26354 10.7316 5.73264L10.2754 6.18889" stroke="#595858" stroke-width="1.5" stroke-linecap="round" stroke-linejoin="round"/>
</svg>
