<svg width="20" height="20" viewBox="0 0 20 20" fill="none" xmlns="http://www.w3.org/2000/svg">
<path d="M10 17.5C14.1421 17.5 17.5 14.1421 17.5 10C17.5 5.85786 14.1421 2.5 10 2.5C5.85786 2.5 2.5 5.85786 2.5 10C2.5 14.1421 5.85786 17.5 10 17.5Z" stroke="#F5A14D"/>
<path d="M7.92578 6.60856C8.06178 6.48856 8.20978 6.37456 8.36978 6.26656C8.53378 6.15856 8.70978 6.06456 8.89778 5.98456C9.08578 5.90456 9.28978 5.84256 9.50978 5.79856C9.72978 5.75056 9.96778 5.72656 10.2238 5.72656C10.5718 5.72656 10.8878 5.77456 11.1718 5.87056C11.4598 5.96656 11.7058 6.10456 11.9098 6.28456C12.1138 6.46056 12.2718 6.67456 12.3838 6.92656C12.4958 7.17856 12.5518 7.46056 12.5518 7.77256C12.5518 8.07656 12.5078 8.34056 12.4198 8.56456C12.3318 8.78456 12.2218 8.97656 12.0898 9.14056C11.9578 9.30456 11.8118 9.44656 11.6518 9.56656C11.4958 9.68656 11.3478 9.80056 11.2078 9.90856C11.0678 10.0125 10.9458 10.1165 10.8418 10.2205C10.7418 10.3205 10.6818 10.4345 10.6618 10.5625L10.5238 11.4385H9.50978L9.40778 10.4605C9.38378 10.2725 9.40978 10.1085 9.48578 9.96856C9.56578 9.82456 9.66978 9.69456 9.79778 9.57856C9.92978 9.45856 10.0758 9.34456 10.2358 9.23656C10.3958 9.12456 10.5458 9.00456 10.6858 8.87656C10.8258 8.74456 10.9418 8.59856 11.0338 8.43856C11.1298 8.27456 11.1778 8.08056 11.1778 7.85656C11.1778 7.71256 11.1498 7.58456 11.0938 7.47256C11.0418 7.35656 10.9678 7.25856 10.8718 7.17856C10.7758 7.09456 10.6598 7.03056 10.5238 6.98656C10.3918 6.94256 10.2478 6.92056 10.0918 6.92056C9.86378 6.92056 9.66978 6.94656 9.50978 6.99856C9.35378 7.04656 9.21978 7.10256 9.10778 7.16656C8.99978 7.22656 8.90778 7.28256 8.83178 7.33456C8.75578 7.38256 8.68778 7.40656 8.62778 7.40656C8.48378 7.40656 8.37978 7.34656 8.31578 7.22656L7.92578 6.60856ZM9.05978 13.6825C9.05978 13.5585 9.08178 13.4405 9.12578 13.3285C9.17378 13.2165 9.23778 13.1205 9.31778 13.0405C9.39778 12.9605 9.49378 12.8965 9.60578 12.8485C9.71778 12.8005 9.83778 12.7765 9.96578 12.7765C10.0938 12.7765 10.2118 12.8005 10.3198 12.8485C10.4318 12.8965 10.5278 12.9605 10.6078 13.0405C10.6918 13.1205 10.7578 13.2165 10.8058 13.3285C10.8538 13.4405 10.8778 13.5585 10.8778 13.6825C10.8778 13.8105 10.8538 13.9305 10.8058 14.0425C10.7578 14.1505 10.6918 14.2445 10.6078 14.3245C10.5278 14.4045 10.4318 14.4665 10.3198 14.5105C10.2118 14.5585 10.0938 14.5825 9.96578 14.5825C9.83778 14.5825 9.71778 14.5585 9.60578 14.5105C9.49378 14.4665 9.39778 14.4045 9.31778 14.3245C9.23778 14.2445 9.17378 14.1505 9.12578 14.0425C9.08178 13.9305 9.05978 13.8105 9.05978 13.6825Z" fill="#F5A14D"/>
</svg>
