<svg width="120" height="120" viewBox="0 0 120 120" fill="none" xmlns="http://www.w3.org/2000/svg">
<path d="M59.9999 117.741C91.7651 117.741 117.516 102.874 117.516 84.5345C117.516 66.1951 91.7651 51.3281 59.9999 51.3281C28.2347 51.3281 2.48389 66.1951 2.48389 84.5345C2.48389 102.874 28.2347 117.741 59.9999 117.741Z" fill="#FEECDA"/>
<path d="M86.2127 108.781C95.0802 108.781 102.269 104.63 102.269 99.5095C102.269 94.3891 95.0802 90.2383 86.2127 90.2383C77.3453 90.2383 70.1567 94.3891 70.1567 99.5095C70.1567 104.63 77.3453 108.781 86.2127 108.781Z" fill="#FCD0A2"/>
<path d="M15.1198 102.749L19.627 105.36C19.95 105.523 20.3068 105.608 20.6686 105.608C21.0305 105.608 21.3873 105.523 21.7102 105.36L59.671 83.4429C60.2446 83.1117 60.2446 82.5741 59.671 82.2429L55.159 79.6389C54.8365 79.4757 54.4801 79.3906 54.1186 79.3906C53.7572 79.3906 53.4008 79.4757 53.0782 79.6389L15.1198 101.546C14.5414 101.877 14.5414 102.415 15.1198 102.749Z" fill="#E6E6E6"/>
<path d="M27.9549 104.947L29.7789 106.001C30.1011 106.166 30.4576 106.251 30.8193 106.251C31.1811 106.251 31.5376 106.166 31.8597 106.001L63.6117 87.6698C64.1877 87.3362 64.1877 86.7986 63.6117 86.4698L61.7878 85.4163C61.4652 85.253 61.1088 85.168 60.7473 85.168C60.3859 85.168 60.0295 85.253 59.7069 85.4163L27.9549 103.747C27.3789 104.079 27.3789 104.616 27.9549 104.947Z" fill="#E6E6E6"/>
<path d="M18.0834 92.3171C18.0834 92.3171 18.9498 86.7971 17.025 82.0499C15.1002 77.3027 12.5058 77.0099 11.1618 77.6843C9.81784 78.3587 10.6818 80.9915 11.8818 82.7603C13.4802 85.0811 16.1202 90.0779 16.0338 94.5659L18.0834 92.3171Z" fill="#F07900"/>
<path opacity="0.2" d="M18.0834 92.3171C18.0834 92.3171 18.9498 86.7971 17.025 82.0499C15.1002 77.3027 12.5058 77.0099 11.1618 77.6843C9.81784 78.3587 10.6818 80.9915 11.8818 82.7603C13.4802 85.0811 16.1202 90.0779 16.0338 94.5659L18.0834 92.3171Z" fill="black"/>
<path d="M17.2195 92.6671C17.198 92.6665 17.1768 92.6615 17.1572 92.6526C17.1376 92.6436 17.12 92.6308 17.1054 92.6149C17.0909 92.599 17.0797 92.5803 17.0725 92.56C17.0653 92.5397 17.0622 92.5182 17.0635 92.4966C17.3803 84.9391 13.6051 79.2967 11.9755 78.1975C11.9577 78.1855 11.9425 78.1701 11.9306 78.1522C11.9187 78.1344 11.9105 78.1143 11.9064 78.0932C11.9022 78.0722 11.9023 78.0505 11.9066 78.0295C11.9108 78.0085 11.9192 77.9885 11.9311 77.9707C11.9431 77.9528 11.9585 77.9376 11.9764 77.9257C11.9942 77.9138 12.0143 77.9056 12.0353 77.9015C12.0564 77.8974 12.0781 77.8974 12.0991 77.9017C12.1201 77.9059 12.1401 77.9143 12.1579 77.9263C14.0779 79.2079 17.7067 84.9775 17.3875 92.5111C17.3869 92.5324 17.3821 92.5534 17.3733 92.5728C17.3644 92.5922 17.3519 92.6097 17.3362 92.6243C17.3206 92.6388 17.3022 92.65 17.2822 92.6574C17.2621 92.6647 17.2409 92.668 17.2195 92.6671Z" fill="white"/>
<path d="M17.7426 98.8714C17.4138 98.0458 16.5642 97.1242 14.3826 96.1402C12.201 95.1562 10.5594 93.8434 10.257 92.893C10.166 92.6305 10.1542 92.347 10.2228 92.0778C10.2915 91.8086 10.4378 91.5655 10.6434 91.3786C10.6434 91.3786 8.58665 91.1386 8.32745 89.8786C8.00345 88.2898 9.80105 88.1866 9.80105 88.1866C9.80105 88.1866 7.44185 84.865 6.81545 83.3866C6.18905 81.9082 6.91145 81.8194 8.43305 82.3834C9.95465 82.9474 12.8538 85.7866 13.3026 86.653C13.3026 86.653 14.0874 85.693 14.9322 86.3242C15.777 86.9554 15.8178 88.8442 15.3186 89.5258C15.6553 89.4631 16.0029 89.4993 16.3194 89.6301C16.6359 89.7609 16.9076 89.9806 17.1018 90.2626C17.961 91.3882 18.2442 94.2034 18.2442 94.2034L17.7426 98.8714Z" fill="#F07900"/>
<path d="M17.8963 98.1031C17.8599 98.1027 17.8246 98.0902 17.796 98.0676C17.7673 98.0451 17.7469 98.0137 17.7379 97.9783C16.5715 93.1183 11.0347 85.3615 7.59555 82.8943C7.57806 82.8819 7.56318 82.8661 7.55179 82.8479C7.54039 82.8297 7.53269 82.8095 7.52913 82.7883C7.52556 82.7671 7.5262 82.7455 7.53101 82.7245C7.53582 82.7036 7.5447 82.6838 7.55715 82.6663C7.5696 82.6489 7.58537 82.634 7.60356 82.6226C7.62176 82.6112 7.64202 82.6035 7.66319 82.5999C7.68437 82.5964 7.70603 82.597 7.72696 82.6018C7.74788 82.6066 7.76766 82.6155 7.78515 82.6279C11.2675 85.1263 16.8739 92.9815 18.0571 97.9015C18.0665 97.9438 18.059 97.9881 18.0361 98.0249C18.0132 98.0617 17.9768 98.0881 17.9347 98.0983L17.8963 98.1031Z" fill="white"/>
<path d="M50.7985 5.93582L19.2817 24.1374C18.7832 24.4249 18.3659 24.8343 18.0687 25.327C17.7715 25.8198 17.6042 26.38 17.5825 26.955V100.169C17.5825 101.324 18.3025 102.673 19.1761 103.179C20.0497 103.685 21.5761 103.63 22.5769 103.054L53.9809 84.9222C54.5071 84.5782 54.9451 84.1152 55.2594 83.5708C55.5738 83.0263 55.7557 82.4156 55.7905 81.7878V8.82782C55.7905 7.67342 55.0705 6.32462 54.1993 5.81822C53.3281 5.31182 51.7993 5.35982 50.7985 5.93582Z" fill="#F07900"/>
<path opacity="0.3" d="M50.7985 5.93582L19.2817 24.1374C18.7832 24.4249 18.3659 24.8343 18.0687 25.327C17.7715 25.8198 17.6042 26.38 17.5825 26.955V100.169C17.5825 101.324 18.3025 102.673 19.1761 103.179C20.0497 103.685 21.5761 103.63 22.5769 103.054L53.9809 84.9222C54.5071 84.5782 54.9451 84.1152 55.2594 83.5708C55.5738 83.0263 55.7557 82.4156 55.7905 81.7878V8.82782C55.7905 7.67342 55.0705 6.32462 54.1993 5.81822C53.3281 5.31182 51.7993 5.35982 50.7985 5.93582Z" fill="white"/>
<path d="M22.145 103.261C21.185 103.638 19.937 103.618 19.1762 103.179C18.2978 102.673 17.585 101.324 17.585 100.17V26.9551C17.6046 26.4072 17.7623 25.8731 18.0434 25.4023L20.9642 27.0607C20.4575 27.6513 20.1612 28.3933 20.1218 29.1703V101.65C20.1194 103.028 20.9978 103.678 22.145 103.261Z" fill="#F07900"/>
<path opacity="0.25" d="M22.145 103.261C21.185 103.638 19.937 103.618 19.1762 103.179C18.2978 102.673 17.585 101.324 17.585 100.17V26.9551C17.6046 26.4072 17.7623 25.8731 18.0434 25.4023L20.9642 27.0607C20.4575 27.6513 20.1612 28.3933 20.1218 29.1703V101.65C20.1194 103.028 20.9978 103.678 22.145 103.261Z" fill="black"/>
<path d="M21.7151 26.3995C21.251 26.703 20.8648 27.1114 20.5875 27.5916C20.3103 28.0719 20.1499 28.6106 20.1191 29.1643V101.644C20.1191 103.204 21.2231 103.843 22.5743 103.063L53.9831 84.9283C54.5093 84.5843 54.9473 84.1213 55.2616 83.5768C55.576 83.0324 55.7579 82.4216 55.7927 81.7939V8.8339C55.7927 7.6843 54.9791 7.2139 53.9831 7.7875L21.7151 26.3995Z" fill="#F07900"/>
<path d="M23.3521 30.8707C22.8513 31.1975 22.4346 31.6376 22.1356 32.1555C21.8366 32.6734 21.6639 33.2544 21.6313 33.8515V96.2011C21.6313 97.2979 22.3993 97.7419 23.3497 97.1947L52.8985 80.1331C53.3985 79.806 53.8147 79.3661 54.1136 78.8488C54.4125 78.3315 54.5857 77.7512 54.6194 77.1547V14.8051C54.6194 13.7131 53.8441 13.2643 52.8985 13.8115L23.3521 30.8707Z" fill="#F07900"/>
<path opacity="0.45" d="M23.3521 30.8707C22.8513 31.1975 22.4346 31.6376 22.1356 32.1555C21.8366 32.6734 21.6639 33.2544 21.6313 33.8515V96.2011C21.6313 97.2979 22.3993 97.7419 23.3497 97.1947L52.8985 80.1331C53.3985 79.806 53.8147 79.3661 54.1136 78.8488C54.4125 78.3315 54.5857 77.7512 54.6194 77.1547V14.8051C54.6194 13.7131 53.8441 13.2643 52.8985 13.8115L23.3521 30.8707Z" fill="black"/>
<path d="M52.4401 75.7221V14.0781L23.3521 30.8781C22.8513 31.2049 22.4346 31.645 22.1356 32.1629C21.8366 32.6808 21.6639 33.2618 21.6313 33.8589V95.4981L50.7194 78.6981C51.219 78.3713 51.635 77.9317 51.9338 77.4149C52.2327 76.898 52.4061 76.3182 52.4401 75.7221Z" fill="#263238"/>
<path d="M35.6641 20.7215L40.9009 17.6999C41.2129 17.5175 41.4649 17.6471 41.4649 17.9855C41.452 18.1755 41.3942 18.3596 41.2961 18.5228C41.198 18.686 41.0626 18.8235 40.9009 18.9239L35.6641 21.9479C35.3521 22.1279 35.0977 22.0007 35.0977 21.6623C35.1117 21.4721 35.1703 21.2878 35.2687 21.1244C35.3671 20.961 35.5025 20.823 35.6641 20.7215Z" fill="black"/>
<path d="M44.6403 15.5264C44.9331 15.356 45.1707 15.4928 45.1707 15.8312C45.1609 16.0154 45.1077 16.1946 45.0156 16.3544C44.9234 16.5141 44.7948 16.6498 44.6403 16.7504C44.3475 16.9208 44.1099 16.784 44.1099 16.4432C44.1197 16.2594 44.1728 16.0805 44.265 15.9212C44.3572 15.7618 44.4858 15.6266 44.6403 15.5264Z" fill="black"/>
<path d="M46.7736 14.2983C47.0664 14.1303 47.304 14.2671 47.304 14.6055C47.2938 14.7896 47.2405 14.9687 47.1483 15.1284C47.0562 15.288 46.9278 15.4238 46.7736 15.5247C46.4808 15.6927 46.2432 15.5559 46.2432 15.2175C46.2533 15.0335 46.3066 14.8544 46.3988 14.6947C46.4909 14.535 46.6193 14.3993 46.7736 14.2983Z" fill="black"/>
<path d="M29.7911 24.103C30.0839 23.935 30.3215 24.0718 30.3215 24.4102C30.3117 24.5944 30.2586 24.7736 30.1664 24.9333C30.0743 25.0931 29.9457 25.2288 29.7911 25.3294C29.4983 25.4998 29.2607 25.3606 29.2607 25.0222C29.2709 24.8382 29.3242 24.6591 29.4164 24.4994C29.5085 24.3397 29.6369 24.2039 29.7911 24.103Z" fill="black"/>
<path d="M31.9201 22.8804C32.2129 22.7124 32.4505 22.8492 32.4505 23.1876C32.4403 23.3716 32.387 23.5507 32.2948 23.7104C32.2027 23.8701 32.0743 24.0058 31.9201 24.1068C31.6273 24.2748 31.3896 24.138 31.3896 23.7996C31.3998 23.6155 31.4531 23.4364 31.5453 23.2767C31.6374 23.1171 31.7658 22.9813 31.9201 22.8804Z" fill="black"/>
<path d="M60.5087 16.4708L29.4455 34.382C29.2435 34.5136 29.0752 34.6908 28.9539 34.8991C28.8327 35.1075 28.7618 35.3413 28.7471 35.582V101.301C28.7619 101.542 28.833 101.776 28.9548 101.985C29.0765 102.193 29.2454 102.37 29.4479 102.501L29.8847 102.741C30.1016 102.851 30.3413 102.908 30.5843 102.908C30.8273 102.908 31.0669 102.851 31.2839 102.741L62.3471 84.8012C62.549 84.6695 62.7173 84.4924 62.8386 84.284C62.9599 84.0756 63.0307 83.8418 63.0455 83.6012V17.9276C63.0306 17.6867 62.9595 17.4526 62.8378 17.2442C62.7161 17.0358 62.5472 16.8588 62.3447 16.7276L61.9079 16.4876C61.6922 16.3754 61.4533 16.3155 61.2103 16.3126C60.9673 16.3097 60.7269 16.3639 60.5087 16.4708Z" fill="#E0E0E0"/>
<path d="M63.0456 83.6562C63.0456 84.273 62.6136 84.6642 62.0856 84.9714L31.5528 102.599C31.02 102.907 30.5928 102.657 30.5928 102.04V36.9594C30.5923 36.6219 30.6808 36.2903 30.8493 35.9978C31.0178 35.7054 31.2605 35.4626 31.5528 35.2938L62.0784 17.6442C62.1763 17.5896 62.2867 17.5615 62.3989 17.5625C62.511 17.5636 62.6209 17.5938 62.7177 17.6502C62.8146 17.7067 62.8951 17.7874 62.9514 17.8844C63.0076 17.9814 63.0376 18.0913 63.0384 18.2034L63.0456 83.6562Z" fill="#FAFAFA"/>
<path d="M62.3999 17.8274C62.4998 17.8274 62.5957 17.8671 62.6663 17.9378C62.737 18.0084 62.7767 18.1043 62.7767 18.2042V83.657C62.7767 84.0746 62.5199 84.4082 61.9439 84.7394L31.4159 102.367C31.3272 102.424 31.2255 102.456 31.1207 102.461C30.8807 102.461 30.8543 102.197 30.8543 102.041V36.9602C30.8538 36.6686 30.93 36.382 31.0753 36.1292C31.2207 35.8765 31.43 35.6664 31.6823 35.5202L62.2127 17.8778C62.2697 17.8451 62.3342 17.8277 62.3999 17.8274ZM62.3999 17.5586C62.2869 17.5583 62.1759 17.5881 62.0783 17.645L31.5479 35.2802C31.2556 35.4489 31.013 35.6918 30.8444 35.9842C30.6759 36.2766 30.5874 36.6083 30.5879 36.9458V102.041C30.5879 102.478 30.8063 102.732 31.1231 102.732C31.276 102.726 31.4248 102.681 31.5551 102.6L62.0807 84.9722C62.6159 84.665 63.0407 84.2738 63.0407 83.657V18.2042C63.0407 18.0338 62.9733 17.8703 62.8533 17.7494C62.7333 17.6284 62.5703 17.5599 62.3999 17.5586Z" fill="#E0E0E0"/>
<path d="M63.0454 17.928V18.204C63.0446 18.0919 63.0146 17.9819 62.9584 17.8849C62.9022 17.7879 62.8217 17.7073 62.7248 17.6508C62.6279 17.5944 62.518 17.5642 62.4059 17.5631C62.2938 17.5621 62.1834 17.5902 62.0854 17.6448L31.5478 35.28C31.2542 35.4465 31.0112 35.6896 30.8446 35.9832C30.8392 35.9895 30.8352 35.9969 30.8326 36.0048L28.9438 34.9128C29.0637 34.6952 29.2372 34.5118 29.4478 34.38L60.5086 16.4712C60.7256 16.3617 60.9652 16.3047 61.2082 16.3047C61.4513 16.3047 61.6909 16.3617 61.9079 16.4712L62.3446 16.7112C62.5498 16.8437 62.7204 17.0232 62.8422 17.2348C62.9641 17.4465 63.0338 17.6841 63.0454 17.928Z" fill="#F0F0F0"/>
<path d="M36.5468 36.255C36.5424 36.2401 36.5424 36.2243 36.5468 36.2094V35.9838L36.194 36.1878C36.1748 36.1998 36.1652 36.1878 36.1652 36.1566V36.0774C36.1637 36.0622 36.1637 36.047 36.1652 36.0318C36.1676 36.017 36.1716 36.0025 36.1772 35.9886L36.5516 34.9662C36.5561 34.9522 36.5617 34.9385 36.5684 34.9254C36.5749 34.9157 36.5841 34.9082 36.5948 34.9038L36.6428 34.875C36.6572 34.875 36.6692 34.875 36.6764 34.875C36.6805 34.8907 36.6805 34.9073 36.6764 34.923V35.7102L36.7532 35.6646C36.7676 35.6646 36.7796 35.6646 36.7844 35.6646C36.7897 35.6802 36.7897 35.697 36.7844 35.7126V35.7582C36.7887 35.7763 36.7887 35.7952 36.7844 35.8134C36.7789 35.8283 36.7677 35.8404 36.7532 35.847L36.6764 35.8926V36.1182C36.6795 36.1373 36.6795 36.1567 36.6764 36.1758C36.6691 36.1903 36.6573 36.202 36.6428 36.2094L36.5828 36.243C36.5636 36.2622 36.554 36.2622 36.5468 36.255ZM36.5612 35.775V35.2134L36.3044 35.9214L36.5612 35.775Z" fill="#455A64"/>
<path d="M36.9598 35.8785C36.8759 35.7403 36.8397 35.5785 36.8566 35.4177C36.8514 35.2199 36.8865 35.0231 36.9598 34.8393C37.0151 34.6922 37.1182 34.568 37.2526 34.4865C37.2955 34.4608 37.3426 34.4429 37.3918 34.4337C37.4294 34.4248 37.469 34.4308 37.5022 34.4505C37.5022 34.4505 37.5022 34.4505 37.5022 34.4697C37.5029 34.4785 37.5029 34.4873 37.5022 34.4961L37.471 34.6137C37.4683 34.6235 37.4634 34.6326 37.4566 34.6401H37.4422C37.4121 34.6301 37.38 34.6274 37.3487 34.6324C37.3173 34.6374 37.2876 34.65 37.2622 34.6689C37.1709 34.7245 37.1008 34.809 37.063 34.9089C37.0108 35.0451 36.9863 35.1904 36.991 35.3361C36.9787 35.4565 37.003 35.5778 37.0606 35.6841C37.1086 35.7417 37.171 35.7465 37.2526 35.6985C37.2847 35.6816 37.3146 35.6606 37.3414 35.6361C37.367 35.6135 37.3896 35.5877 37.4086 35.5593V35.1945L37.2622 35.2785C37.2478 35.2785 37.2382 35.2785 37.231 35.2785C37.227 35.262 37.227 35.2447 37.231 35.2281V35.1777C37.2274 35.1587 37.2274 35.1392 37.231 35.1201C37.2381 35.1063 37.2489 35.0946 37.2622 35.0865L37.5022 34.9521C37.519 34.9521 37.531 34.9521 37.5358 34.9521C37.5413 34.9709 37.5413 34.9909 37.5358 35.0097V35.5329C37.5374 35.5481 37.5374 35.5634 37.5358 35.5785C37.5349 35.5918 37.5299 35.6044 37.5214 35.6145C37.4549 35.7283 37.3597 35.8226 37.2454 35.8881C37.1326 35.9649 37.0342 35.9601 36.9598 35.8785Z" fill="#455A64"/>
<path d="M39.9383 34.0813C39.9395 34.1643 39.9214 34.2465 39.8856 34.3214C39.8498 34.3963 39.7972 34.462 39.7319 34.5133C39.6191 34.5781 39.5279 34.4917 39.5279 34.3165C39.5263 34.2336 39.5439 34.1515 39.5793 34.0766C39.6147 34.0016 39.6669 33.9359 39.7319 33.8845C39.8399 33.8197 39.9383 33.9085 39.9383 34.0813Z" fill="#455A64"/>
<path d="M39.732 33.3611C39.4902 33.5351 39.3196 33.7909 39.252 34.0811C39.2328 34.1459 39.252 34.2059 39.2736 34.2251C39.312 34.2491 39.3696 34.1987 39.3936 34.1195C39.4403 33.9167 39.5588 33.7377 39.7272 33.6155C39.7557 33.5954 39.7885 33.5823 39.823 33.5775C39.8575 33.5726 39.8927 33.5761 39.9256 33.5876C39.9585 33.5991 39.9881 33.6183 40.0121 33.6436C40.036 33.669 40.0536 33.6996 40.0632 33.7331C40.0848 33.7859 40.1424 33.7715 40.1808 33.7019C40.2082 33.6504 40.2159 33.5907 40.2024 33.5339C40.1891 33.4869 40.1649 33.4436 40.1316 33.4078C40.0984 33.3719 40.0572 33.3444 40.0113 33.3276C39.9654 33.3107 39.9162 33.305 39.8676 33.3108C39.8191 33.3166 39.7726 33.3339 39.732 33.3611Z" fill="#455A64"/>
<path d="M39.7317 32.8651C39.3813 33.1203 39.1275 33.4865 39.0117 33.9043C38.9877 33.9715 38.9949 34.0411 39.0285 34.0603C39.0669 34.0819 39.1197 34.0363 39.1461 33.9595C39.2414 33.6165 39.4515 33.3166 39.7413 33.1099C39.7893 33.0751 39.8445 33.0515 39.9028 33.0408C39.9612 33.03 40.0211 33.0325 40.0784 33.0479C40.1357 33.0633 40.1888 33.0913 40.2338 33.1298C40.2789 33.1684 40.3148 33.2165 40.3389 33.2707C40.3629 33.3187 40.4181 33.3019 40.4565 33.2347C40.4717 33.2084 40.4811 33.1791 40.484 33.1489C40.4869 33.1187 40.4833 33.0882 40.4733 33.0595C40.4451 32.9907 40.4013 32.9294 40.3453 32.8805C40.2894 32.8315 40.2228 32.7963 40.1509 32.7774C40.079 32.7586 40.0038 32.7567 39.931 32.7719C39.8582 32.7871 39.79 32.819 39.7317 32.8651Z" fill="#455A64"/>
<path d="M45.0768 30.528C45.0741 30.5219 45.0728 30.5154 45.0728 30.5088C45.0728 30.5022 45.0741 30.4956 45.0768 30.4896C45.0768 30.4732 45.0818 30.4573 45.0912 30.444L45.384 29.9184L45.4056 29.88C45.4124 29.8701 45.4215 29.8619 45.432 29.856L45.5376 29.7936C45.5413 29.7906 45.546 29.7891 45.5508 29.7891C45.5555 29.7891 45.5602 29.7906 45.564 29.7936C45.5662 29.7989 45.5674 29.8046 45.5674 29.8104C45.5674 29.8161 45.5662 29.8218 45.564 29.8272V31.1736C45.5671 31.1886 45.5671 31.2041 45.564 31.2192C45.5585 31.232 45.5493 31.2428 45.5376 31.2504L45.4272 31.3128C45.4234 31.3157 45.4187 31.3173 45.414 31.3173C45.4092 31.3173 45.4045 31.3157 45.4008 31.3128C45.3967 31.3019 45.3967 31.29 45.4008 31.2792V30.2496L45.2088 30.5904C45.2033 30.6025 45.194 30.6126 45.1824 30.6192C45.1784 30.6217 45.1739 30.6231 45.1692 30.6231C45.1645 30.6231 45.1599 30.6217 45.156 30.6192L45.0768 30.528Z" fill="#455A64"/>
<path d="M45.7605 30.1318C45.7576 30.1192 45.7576 30.106 45.7605 30.0934C45.7627 30.0775 45.7676 30.0621 45.7749 30.0478L46.0677 29.5222L46.0917 29.4862C46.0971 29.4753 46.1054 29.4662 46.1157 29.4598L46.2213 29.3998C46.2249 29.3964 46.2296 29.3945 46.2345 29.3945C46.2394 29.3945 46.2442 29.3964 46.2477 29.3998C46.2518 29.4106 46.2518 29.4226 46.2477 29.4334V30.7798C46.2511 30.7948 46.2511 30.8104 46.2477 30.8254C46.2422 30.8382 46.233 30.8491 46.2213 30.8566L46.1109 30.9214C46.1075 30.9241 46.1033 30.9256 46.0989 30.9256C46.0946 30.9256 46.0903 30.9241 46.0869 30.9214C46.0788 30.9121 46.0745 30.9001 46.0749 30.8878V29.8558L45.8829 30.199C45.8775 30.2106 45.8681 30.2199 45.8565 30.2254C45.8529 30.2275 45.8487 30.2286 45.8445 30.2286C45.8403 30.2286 45.8362 30.2275 45.8325 30.2254L45.7605 30.1318Z" fill="#455A64"/>
<path d="M46.6605 29.555C46.6639 29.5523 46.6682 29.5508 46.6725 29.5508C46.6769 29.5508 46.6811 29.5523 46.6845 29.555C46.6886 29.5658 46.6886 29.5778 46.6845 29.5886V29.7926C46.6878 29.8076 46.6878 29.8232 46.6845 29.8382C46.6805 29.8511 46.672 29.8621 46.6605 29.8694L46.5333 29.9438C46.5296 29.9467 46.5249 29.9483 46.5201 29.9483C46.5154 29.9483 46.5107 29.9467 46.5069 29.9438C46.5029 29.933 46.5029 29.921 46.5069 29.9102V29.7062C46.5034 29.6912 46.5034 29.6756 46.5069 29.6606C46.5118 29.6474 46.5212 29.6364 46.5333 29.6294L46.6605 29.555ZM46.6605 30.275C46.6639 30.2723 46.6682 30.2708 46.6725 30.2708C46.6769 30.2708 46.6811 30.2723 46.6845 30.275C46.6868 30.2803 46.6879 30.286 46.6879 30.2918C46.6879 30.2976 46.6868 30.3033 46.6845 30.3086V30.5126C46.6878 30.5276 46.6878 30.5432 46.6845 30.5582C46.6798 30.5708 46.6715 30.5816 46.6605 30.5894L46.5333 30.6614C46.5298 30.6648 46.5251 30.6666 46.5201 30.6666C46.5152 30.6666 46.5105 30.6648 46.5069 30.6614C46.5029 30.6506 46.5029 30.6386 46.5069 30.6278V30.4238C46.5034 30.4088 46.5034 30.3932 46.5069 30.3782C46.5125 30.3648 46.5216 30.3532 46.5333 30.3446L46.6605 30.275Z" fill="#455A64"/>
<path d="M47.3831 30.1833C47.3795 30.1866 47.3748 30.1885 47.3699 30.1885C47.365 30.1885 47.3602 30.1866 47.3567 30.1833C47.3567 30.1833 47.3567 30.1665 47.3567 30.1521V29.9001L46.9367 30.1401C46.9331 30.1434 46.9284 30.1453 46.9235 30.1453C46.9186 30.1453 46.9138 30.1434 46.9103 30.1401C46.9062 30.1292 46.9062 30.1173 46.9103 30.1065V29.9577C46.9078 29.9393 46.9078 29.9208 46.9103 29.9025L46.9319 29.8425L47.3447 28.8081C47.3548 28.7754 47.374 28.7463 47.3999 28.7241L47.5031 28.6641C47.5151 28.6641 47.5223 28.6641 47.5295 28.6641C47.5317 28.6694 47.5329 28.6751 47.5329 28.6809C47.5329 28.6866 47.5317 28.6923 47.5295 28.6977V29.5209L47.6447 29.4537C47.6484 29.4507 47.6531 29.4492 47.6579 29.4492C47.6626 29.4492 47.6673 29.4507 47.6711 29.4537C47.6733 29.459 47.6745 29.4647 47.6745 29.4705C47.6745 29.4762 47.6733 29.4819 47.6711 29.4873V29.6337C47.6744 29.6495 47.6744 29.6658 47.6711 29.6817C47.6649 29.694 47.6558 29.7047 47.6447 29.7129L47.5295 29.7801V30.0321C47.5324 30.0471 47.5324 30.0626 47.5295 30.0777C47.5248 30.0909 47.5154 30.102 47.5031 30.1089L47.3831 30.1833ZM47.3471 29.6361V29.1897L47.1071 29.7705L47.3471 29.6361Z" fill="#455A64"/>
<path d="M47.9256 28.4673C47.9265 28.4514 47.9305 28.4359 47.9376 28.4217C47.9423 28.4084 47.9517 28.3973 47.964 28.3905L48.4728 28.0977C48.4728 28.0977 48.4896 28.0977 48.4968 28.0977C48.505 28.1069 48.5092 28.1189 48.5088 28.1313V28.2801C48.5082 28.296 48.5041 28.3115 48.4968 28.3257C48.4921 28.3382 48.4837 28.3491 48.4728 28.3569L48.0912 28.5777L48.0768 28.8513C48.097 28.8251 48.1213 28.8024 48.1488 28.7841C48.1676 28.7695 48.1877 28.7566 48.2088 28.7457C48.2512 28.7195 48.2986 28.7024 48.348 28.6953C48.3875 28.69 48.4277 28.6994 48.4608 28.7217C48.4951 28.7501 48.5209 28.7874 48.5352 28.8297C48.5554 28.8916 48.5643 28.9566 48.5616 29.0217C48.5615 29.1024 48.5527 29.1829 48.5352 29.2617C48.518 29.331 48.4922 29.3979 48.4584 29.4609C48.4289 29.5175 48.3909 29.5694 48.3456 29.6145C48.3059 29.6573 48.2597 29.6938 48.2088 29.7225C48.1602 29.754 48.1053 29.7745 48.048 29.7825C48.0091 29.7883 47.9696 29.7789 47.9376 29.7561C47.9057 29.7329 47.8821 29.7001 47.8704 29.6625C47.8544 29.6178 47.8463 29.5707 47.8464 29.5233C47.8416 29.5076 47.8416 29.4909 47.8464 29.4753C47.8526 29.4629 47.8616 29.4522 47.8728 29.4441L47.9808 29.3817C47.9848 29.3793 47.9893 29.3781 47.994 29.3781C47.9986 29.3781 48.0032 29.3793 48.0072 29.3817C48.0152 29.3883 48.0203 29.3977 48.0216 29.4081C48.0249 29.4311 48.0331 29.4532 48.0456 29.4729C48.0564 29.4848 48.0707 29.4932 48.0864 29.4969C48.1038 29.5003 48.1217 29.5003 48.1392 29.4969L48.1992 29.4681C48.2522 29.4351 48.2947 29.3876 48.3216 29.3313C48.3546 29.2684 48.3711 29.1982 48.3696 29.1273C48.3727 29.1034 48.3699 29.0791 48.3615 29.0565C48.3532 29.034 48.3395 29.0138 48.3216 28.9977C48.3037 28.9849 48.2823 28.9781 48.2604 28.9781C48.2384 28.9781 48.2171 28.9849 48.1992 28.9977C48.175 29.0099 48.1531 29.0261 48.1344 29.0457C48.1196 29.0582 48.1067 29.0727 48.096 29.0889L48.0672 29.1273C48.059 29.1384 48.0483 29.1475 48.036 29.1537L47.9136 29.2257C47.9098 29.2286 47.9052 29.2302 47.9004 29.2302C47.8956 29.2302 47.891 29.2286 47.8872 29.2257C47.8849 29.2203 47.8838 29.2146 47.8838 29.2089C47.8838 29.2031 47.8849 29.1974 47.8872 29.1921L47.9256 28.4673Z" fill="#455A64"/>
<path d="M32.6543 38.6723V38.2379L33.0311 38.0195V38.4539L32.6543 38.6723Z" fill="#455A64"/>
<path d="M33.2183 38.3465V37.4777L33.5951 37.2617V38.1305L33.2183 38.3465Z" fill="#455A64"/>
<path d="M33.7822 38.0192V36.7184L34.159 36.5V37.8032L33.7822 38.0192Z" fill="#455A64"/>
<path d="M34.3462 37.6982V35.9606L34.723 35.7422V37.4798L34.3462 37.6982Z" fill="#455A64"/>
<path d="M60.763 21.0365C60.7222 20.9765 60.6718 20.9621 60.6214 20.9909L59.2174 21.7997C59.1605 21.854 59.1164 21.9203 59.0882 21.9938C59.06 22.0672 59.0484 22.146 59.0542 22.2245V23.0141C59.0518 23.0984 59.0734 23.1816 59.1166 23.2541C59.13 23.2771 59.1501 23.2955 59.1742 23.3069C59.1867 23.3138 59.2007 23.3174 59.215 23.3174C59.2293 23.3174 59.2433 23.3138 59.2558 23.3069L60.6598 22.4981C60.7167 22.4432 60.7609 22.3765 60.7891 22.3027C60.8173 22.2289 60.8289 22.1497 60.823 22.0709V21.2885C60.8272 21.2005 60.8064 21.1131 60.763 21.0365ZM59.155 23.1653C59.1384 23.1292 59.131 23.0897 59.1334 23.0501V22.2605C59.1294 22.2005 59.1383 22.1403 59.1594 22.0841C59.1805 22.0278 59.2134 21.9766 59.2558 21.9341L60.6598 21.1205C60.667 21.1172 60.6747 21.1155 60.6826 21.1155C60.6905 21.1155 60.6982 21.1172 60.7054 21.1205L60.7246 21.1373C60.7418 21.1731 60.7493 21.2128 60.7462 21.2525V22.0421C60.7499 22.1022 60.7407 22.1625 60.7191 22.2188C60.6976 22.2751 60.6643 22.3261 60.6214 22.3685L59.2174 23.1749C59.191 23.1893 59.1694 23.1869 59.155 23.1653Z" fill="#455A64"/>
<path d="M59.5197 21.918V22.854L59.2989 22.9788C59.2946 22.9813 59.2897 22.9826 59.2847 22.9826C59.2797 22.9827 59.2748 22.9814 59.2705 22.979C59.2661 22.9766 59.2625 22.9731 59.2599 22.9688C59.2573 22.9646 59.2558 22.9597 59.2557 22.9548V22.2612C59.2537 22.2171 59.2608 22.173 59.2765 22.1317C59.2922 22.0905 59.3161 22.0528 59.3469 22.0212L59.5197 21.918Z" fill="#455A64"/>
<path d="M59.6255 21.8606L59.8895 21.707V22.6406L59.6255 22.7918V21.8606Z" fill="#455A64"/>
<path d="M59.9902 21.6497L60.2542 21.4961V22.4345L59.9902 22.5857V21.6497Z" fill="#455A64"/>
<path d="M60.6214 21.3602V22.0322C60.6212 22.0935 60.605 22.1537 60.5742 22.2068C60.5435 22.2598 60.4993 22.3039 60.4462 22.3346L60.3574 22.385V21.4418L60.5662 21.3194C60.5724 21.3149 60.5799 21.3125 60.5875 21.3125C60.5952 21.3125 60.6026 21.315 60.6088 21.3195C60.6149 21.3241 60.6195 21.3305 60.6217 21.3378C60.624 21.3451 60.6239 21.3529 60.6214 21.3602Z" fill="#455A64"/>
<path d="M60.8757 21.2605C60.9141 21.2389 60.9453 21.3517 60.9453 21.5005V21.6469C60.9565 21.7656 60.9322 21.885 60.8757 21.9901L60.8037 22.0381V21.3037L60.8757 21.2605Z" fill="#455A64"/>
<path d="M56.9229 23.648L58.2885 22.4336L57.8661 24.212L57.6669 23.4728L56.9229 23.648Z" fill="#455A64"/>
<path d="M33.4751 41.7619L33.9863 42.0019C34.0035 42.0112 34.0196 42.0225 34.0343 42.0355C34.0521 42.0569 34.0607 42.0845 34.0583 42.1123V42.4075C34.0584 42.4284 34.0534 42.449 34.0439 42.4675C34.0383 42.4849 34.0262 42.4995 34.0103 42.5083H33.9959L33.2063 42.1435C33.187 42.1379 33.1701 42.1261 33.1583 42.1099C33.1442 42.0878 33.1383 42.0615 33.1415 42.0355V41.8891C33.1404 41.8571 33.1461 41.8252 33.1583 41.7955C33.1706 41.764 33.1867 41.7342 33.2063 41.7067L33.9959 40.4299C33.9994 40.4234 34.0043 40.4176 34.0103 40.4131C34.0148 40.4087 34.0208 40.4062 34.0271 40.4062C34.0334 40.4062 34.0394 40.4087 34.0439 40.4131C34.0493 40.4193 34.0533 40.4266 34.0558 40.4344C34.0583 40.4423 34.0591 40.4505 34.0583 40.4587V40.7539C34.0581 40.7897 34.0499 40.8249 34.0343 40.8571C34.0175 40.8931 34.0007 40.9219 33.9863 40.9483L33.4751 41.7619Z" fill="url(#paint0_linear_6558_83328)"/>
<path d="M34.7998 41.0229C34.8291 40.6275 34.9502 40.2444 35.1535 39.904C35.3568 39.5636 35.6367 39.2753 35.971 39.0621L36.931 38.4933C37.5766 38.1117 38.0998 38.3829 38.0998 39.0957C38.0725 39.4932 37.952 39.8786 37.7481 40.2209C37.5443 40.5632 37.2627 40.8528 36.9262 41.0661L35.9662 41.6181C35.3182 41.9997 34.7998 41.7261 34.7998 41.0229Z" fill="url(#paint1_linear_6558_83328)"/>
<path d="M30.5854 97.3236V102.04C30.5854 102.656 31.0198 102.906 31.5454 102.599L62.0711 84.9708C62.6063 84.6636 63.0311 84.2724 63.0311 83.6556V78.582L30.5854 97.3236Z" fill="#BA68C8"/>
<path d="M30.5854 97.3236V102.04C30.5854 102.656 31.0198 102.906 31.5454 102.599L62.0711 84.9708C62.6063 84.6636 63.0311 84.2724 63.0311 83.6556V78.582L30.5854 97.3236Z" fill="#FCD0A2"/>
<path d="M34.7996 97.4167C34.6584 97.529 34.5449 97.6722 34.468 97.8354C34.391 97.9985 34.3525 98.1772 34.3556 98.3575C34.3556 98.7343 34.5548 98.9263 34.7996 98.7847C34.9409 98.6725 35.0543 98.5292 35.1313 98.3661C35.2083 98.203 35.2468 98.0243 35.2436 97.8439C35.234 97.4671 35.0396 97.2775 34.7996 97.4167Z" fill="white"/>
<path d="M35.7431 96.263L35.4047 96.4574V96.2822C35.4047 96.1694 35.3471 96.1118 35.2727 96.155L34.3199 96.719C34.2772 96.7522 34.2428 96.7948 34.2195 96.8435C34.1962 96.8923 34.1845 96.9458 34.1855 96.9998V97.1774L33.8471 97.3718C33.7593 97.4411 33.6889 97.5299 33.6414 97.6311C33.5939 97.7323 33.5707 97.8432 33.5735 97.955V99.6806C33.5735 99.9206 33.6959 100.033 33.8471 99.9446L35.7527 98.8454C35.8409 98.7764 35.9117 98.6877 35.9597 98.5864C36.0076 98.4852 36.0312 98.3742 36.0287 98.2622V96.527C36.0191 96.2942 35.8967 96.1742 35.7431 96.263ZM34.7999 99.119C34.4351 99.3326 34.1351 99.0446 34.1351 98.4806C34.1351 97.9166 34.4351 97.2806 34.7999 97.0742C35.1647 96.8678 35.4647 97.1486 35.4647 97.7126C35.4647 98.2766 35.1575 98.9102 34.7999 99.119Z" fill="white"/>
<path d="M39.2013 93.7824C38.8172 94.0322 38.4975 94.369 38.2682 94.7656C38.0388 95.1622 37.9063 95.6074 37.8813 96.0648C37.8813 96.9072 38.4717 97.248 39.2013 96.828C39.5847 96.5771 39.9036 96.2396 40.1325 95.8427C40.3614 95.4458 40.4937 95.0007 40.5189 94.5432C40.5189 93.7032 39.9285 93.36 39.2013 93.7824ZM39.9213 95.1528L39.3597 95.4696V96.1536C39.3548 96.1944 39.3352 96.232 39.3044 96.2593C39.2737 96.2865 39.234 96.3016 39.1929 96.3016C39.1519 96.3016 39.1122 96.2865 39.0815 96.2593C39.0507 96.232 39.0311 96.1944 39.0261 96.1536V95.6616L38.6421 95.8824C38.618 95.8986 38.5896 95.907 38.5605 95.9064C38.5313 95.9062 38.5026 95.8983 38.4774 95.8836C38.4521 95.8688 38.4312 95.8478 38.4166 95.8224C38.3947 95.7845 38.3888 95.7395 38.4 95.6973C38.4113 95.655 38.4388 95.6189 38.4766 95.5968L39.0261 95.2776V94.536C39.0311 94.4953 39.0507 94.4577 39.0815 94.4304C39.1122 94.4031 39.1519 94.3881 39.1929 94.3881C39.234 94.3881 39.2737 94.4031 39.3044 94.4304C39.3352 94.4577 39.3548 94.4953 39.3597 94.536V95.088L39.7438 94.8648C39.7819 94.8429 39.8273 94.837 39.8698 94.8485C39.9124 94.8599 39.9486 94.8879 39.9705 94.926C39.9925 94.9642 39.9984 95.0096 39.9869 95.0521C39.9754 95.0947 39.9475 95.1309 39.9093 95.1528H39.9213Z" fill="white"/>
<path d="M43.6799 91.4413L60.0719 81.9781C60.7199 81.6037 61.2455 81.8701 61.2455 82.5733C61.2162 82.9677 61.0948 83.3497 60.8909 83.6886C60.6871 84.0275 60.4066 84.3138 60.0719 84.5245L43.6799 93.9901C43.0319 94.3669 42.5063 94.1005 42.5063 93.3973C42.5344 93.002 42.6552 92.6188 42.8592 92.2789C43.0631 91.9391 43.3443 91.6521 43.6799 91.4413Z" fill="#FAFAFA"/>
<path d="M60.1464 82.3213C60.5712 82.0813 60.9144 82.2757 60.9144 82.7653C60.9001 83.0318 60.8231 83.2911 60.6897 83.5221C60.5562 83.7532 60.3701 83.9494 60.1464 84.0949C59.7216 84.3349 59.3784 84.1405 59.3784 83.6509C59.3927 83.3845 59.4697 83.1252 59.6032 82.8942C59.7366 82.6631 59.9228 82.4668 60.1464 82.3213Z" fill="#FCD0A2"/>
<path d="M60.5806 82.9174L60.2182 82.5598C60.209 82.5523 60.1984 82.5466 60.187 82.543H60.1726H60.127C60.1169 82.5455 60.1072 82.5495 60.0982 82.555C60.0891 82.562 60.0817 82.571 60.0766 82.5814L59.7142 83.347C59.7064 83.3628 59.7028 83.3803 59.7038 83.3979C59.7047 83.4155 59.7101 83.4326 59.7195 83.4475C59.7288 83.4624 59.7419 83.4747 59.7574 83.4832C59.7728 83.4916 59.7902 83.4959 59.8078 83.4958C59.8276 83.496 59.847 83.4905 59.8637 83.4798C59.8803 83.4692 59.8934 83.4538 59.9014 83.4358L60.0646 83.0902V83.7982C60.0653 83.8258 60.0767 83.852 60.0964 83.8713C60.1161 83.8906 60.1426 83.9014 60.1702 83.9014C60.1976 83.9014 60.2239 83.8905 60.2432 83.8711C60.2626 83.8518 60.2734 83.8255 60.2734 83.7982V82.8718L60.4606 83.0494C60.4813 83.0638 60.5065 83.0704 60.5317 83.0679C60.5568 83.0654 60.5802 83.0539 60.5976 83.0356C60.615 83.0174 60.6253 82.9934 60.6266 82.9682C60.6279 82.943 60.6201 82.9181 60.6046 82.8982L60.5806 82.9174Z" fill="#FAFAFA"/>
<path d="M56.2152 37.0559C56.2152 35.8943 55.3992 35.4215 54.3912 36.0023L38.4 45.2375C37.8691 45.5829 37.4272 46.0487 37.1102 46.5971C36.7933 47.1455 36.6102 47.761 36.576 48.3935V52.3919C36.576 52.4375 36.576 52.4807 36.576 52.5263C36.576 53.7047 36.4368 55.5215 35.376 56.0087C35.376 56.0087 36.0744 56.2151 36.828 55.4255C37.2501 54.928 37.5399 54.332 37.6704 53.6927C37.925 53.6659 38.1706 53.584 38.3904 53.4527L54.3912 44.2175C54.9221 43.8721 55.364 43.4062 55.6809 42.8578C55.9979 42.3094 56.1809 41.6939 56.2152 41.0615V37.0559Z" fill="#E0E0E0"/>
<path d="M50.4309 41.7465C50.5044 41.7021 50.586 41.6727 50.6709 41.6601C50.7418 41.6491 50.8143 41.6618 50.8773 41.6961C50.9442 41.7344 50.9959 41.7946 51.0237 41.8665C51.0641 41.9671 51.0829 42.075 51.0789 42.1833C51.0792 42.2835 51.0679 42.3833 51.0453 42.4809C51.0253 42.5705 50.9972 42.658 50.9613 42.7425C50.9294 42.8247 50.8926 42.9048 50.8509 42.9825C50.8101 43.0593 50.7717 43.1313 50.7381 43.1985C50.7045 43.2657 50.6709 43.3329 50.6421 43.4001C50.6166 43.4614 50.6004 43.5261 50.5941 43.5921C50.5913 43.6236 50.5831 43.6545 50.5701 43.6833C50.5617 43.7077 50.5458 43.7287 50.5245 43.7433L50.3253 43.8585C50.3177 43.8644 50.3085 43.8675 50.2989 43.8675C50.2894 43.8675 50.2801 43.8644 50.2725 43.8585C50.2649 43.8497 50.2592 43.8394 50.2559 43.8282C50.2526 43.817 50.2517 43.8053 50.2533 43.7937C50.2574 43.6925 50.2719 43.592 50.2965 43.4937C50.3222 43.4034 50.3526 43.3144 50.3877 43.2273C50.4245 43.1425 50.4629 43.0625 50.5029 42.9873C50.5461 42.9129 50.5821 42.8409 50.6181 42.7737C50.6541 42.7065 50.6805 42.6417 50.7045 42.5817C50.7256 42.5265 50.737 42.468 50.7381 42.4089C50.7489 42.3698 50.7464 42.3282 50.731 42.2907C50.7155 42.2531 50.688 42.2219 50.6527 42.2017C50.6174 42.1816 50.5765 42.1739 50.5363 42.1797C50.4961 42.1854 50.459 42.2045 50.4309 42.2337C50.2565 42.3617 50.1393 42.553 50.1045 42.7665C50.0975 42.7943 50.0887 42.8215 50.0781 42.8481C50.0665 42.8694 50.049 42.8869 50.0277 42.8985L49.8165 43.0209C49.8105 43.025 49.8034 43.0273 49.7961 43.0273C49.7888 43.0273 49.7817 43.025 49.7757 43.0209C49.7691 43.0135 49.7642 43.0047 49.7613 42.9951C49.7584 42.9856 49.7576 42.9756 49.7589 42.9657C49.7638 42.8564 49.7831 42.7483 49.8165 42.6441C49.8513 42.5231 49.8996 42.4064 49.9605 42.2961C50.0193 42.1825 50.0901 42.0755 50.1717 41.9769C50.2436 41.8852 50.3314 41.8072 50.4309 41.7465ZM50.5365 43.9737C50.5437 43.9681 50.5526 43.965 50.5617 43.965C50.5708 43.965 50.5797 43.9681 50.5869 43.9737C50.595 43.9823 50.6011 43.9926 50.6048 44.0037C50.6085 44.0149 50.6098 44.0268 50.6085 44.0385V44.4009C50.6085 44.4318 50.6011 44.4623 50.5869 44.4897C50.5767 44.5151 50.5592 44.5368 50.5365 44.5521L50.3109 44.6817C50.3043 44.6876 50.2958 44.6909 50.2869 44.6909C50.2781 44.6909 50.2695 44.6876 50.2629 44.6817C50.2552 44.6729 50.2493 44.6626 50.2456 44.6515C50.2419 44.6404 50.2404 44.6286 50.2413 44.6169V44.2617C50.2416 44.2309 50.249 44.2005 50.2629 44.1729C50.2714 44.1479 50.2884 44.1267 50.3109 44.1129L50.5365 43.9737Z" fill="#455A64"/>
<path d="M52.1205 40.7689C52.1943 40.7256 52.2758 40.6971 52.3605 40.6849C52.4314 40.6715 52.5048 40.6843 52.5669 40.7209C52.6332 40.7589 52.6847 40.8181 52.7133 40.8889C52.7533 40.9896 52.772 41.0974 52.7685 41.2057C52.769 41.3066 52.7577 41.4073 52.7349 41.5057C52.7149 41.5952 52.6868 41.6828 52.6509 41.7673C52.619 41.8495 52.5822 41.9296 52.5405 42.0073C52.4997 42.0841 52.4613 42.1561 52.4277 42.2233C52.3941 42.2905 52.3605 42.3577 52.3317 42.4249C52.3059 42.486 52.2897 42.5508 52.2837 42.6169C52.2805 42.6483 52.2724 42.6791 52.2597 42.7081C52.2514 42.7325 52.2354 42.7535 52.2141 42.7681L52.0149 42.8809C52.0082 42.8875 51.9991 42.8912 51.9897 42.8912C51.9803 42.8912 51.9712 42.8875 51.9645 42.8809C51.9477 42.8689 51.9429 42.8473 51.9429 42.8161C51.947 42.7149 51.9615 42.6143 51.9861 42.5161C52.0111 42.4221 52.0424 42.3299 52.0797 42.2401C52.113 42.1581 52.1506 42.078 52.1925 42.0001C52.2357 41.9257 52.2717 41.8561 52.3077 41.7889C52.3401 41.7266 52.369 41.6625 52.3941 41.5969C52.4154 41.5409 52.4268 41.4816 52.4277 41.4217C52.4369 41.3832 52.4333 41.3429 52.4175 41.3066C52.4017 41.2704 52.3746 41.2403 52.3402 41.2208C52.3058 41.2013 52.2661 41.1935 52.2269 41.1986C52.1877 41.2036 52.1512 41.2213 52.1229 41.2489C52.0358 41.3112 51.9619 41.3902 51.9055 41.4812C51.849 41.5722 51.8112 41.6735 51.7941 41.7793C51.7885 41.8082 51.7797 41.8364 51.7677 41.8633C51.7563 41.8839 51.7398 41.9013 51.7197 41.9137L51.5061 42.0361C51.5001 42.0402 51.493 42.0424 51.4857 42.0424C51.4784 42.0424 51.4713 42.0402 51.4653 42.0361C51.4592 42.0288 51.4545 42.0204 51.4516 42.0114C51.4488 42.0023 51.4477 41.9928 51.4485 41.9833C51.4532 41.874 51.4725 41.7658 51.5061 41.6617C51.5419 41.5402 51.5901 41.4228 51.6501 41.3113C51.7095 41.1988 51.7803 41.0926 51.8613 40.9945C51.934 40.9049 52.0217 40.8285 52.1205 40.7689ZM52.2237 42.9985C52.2309 42.9928 52.2398 42.9898 52.2489 42.9898C52.2581 42.9898 52.2669 42.9928 52.2741 42.9985C52.2822 43.0071 52.2883 43.0173 52.292 43.0285C52.2958 43.0397 52.297 43.0516 52.2957 43.0633V43.4161C52.2957 43.447 52.2883 43.4774 52.2741 43.5049C52.2639 43.5302 52.2464 43.552 52.2237 43.5673L51.9981 43.6969C51.9915 43.7028 51.983 43.706 51.9741 43.706C51.9653 43.706 51.9567 43.7028 51.9501 43.6969C51.9422 43.6886 51.9362 43.6788 51.9325 43.668C51.9288 43.6573 51.9274 43.6458 51.9285 43.6345V43.2793C51.9286 43.2484 51.936 43.2179 51.9501 43.1905C51.9586 43.1649 51.9756 43.1429 51.9981 43.1281L52.2237 42.9985Z" fill="#455A64"/>
<path d="M53.8247 39.7854C53.8989 39.7425 53.9802 39.7133 54.0647 39.699C54.1356 39.6883 54.208 39.701 54.2711 39.735C54.3356 39.7755 54.3859 39.835 54.4151 39.9054C54.4566 40.0056 54.4754 40.1138 54.4703 40.2222C54.4719 40.3232 54.4606 40.424 54.4367 40.5222C54.4164 40.6114 54.3891 40.6989 54.3551 40.7838C54.3191 40.8678 54.2831 40.947 54.2423 41.0238L54.1295 41.2398C54.0944 41.3051 54.0631 41.3724 54.0359 41.4414C54.0094 41.5024 53.9924 41.5672 53.9855 41.6334C53.9836 41.6651 53.9754 41.6961 53.9615 41.7246C53.9537 41.7486 53.9375 41.7691 53.9159 41.7822L53.7167 41.8974C53.71 41.904 53.7009 41.9077 53.6915 41.9077C53.6821 41.9077 53.673 41.904 53.6663 41.8974C53.6582 41.8888 53.6521 41.8785 53.6484 41.8674C53.6447 41.8562 53.6434 41.8443 53.6447 41.8326C53.6486 41.7314 53.6631 41.6308 53.6879 41.5326C53.7129 41.441 53.7442 41.3511 53.7815 41.2638C53.8167 41.1822 53.8551 41.1022 53.8967 41.0238C53.9375 40.9494 53.9759 40.8798 54.0095 40.8126C54.0429 40.7508 54.0718 40.6866 54.0959 40.6206C54.1183 40.5649 54.1297 40.5054 54.1295 40.4454C54.1409 40.4065 54.1387 40.3648 54.1235 40.3273C54.1082 40.2897 54.0808 40.2584 54.0455 40.2384C54.0102 40.2184 53.9692 40.2109 53.9291 40.2171C53.8891 40.2233 53.8523 40.2429 53.8247 40.2726C53.7378 40.3346 53.6641 40.4132 53.6077 40.5038C53.5513 40.5944 53.5133 40.6953 53.4959 40.8006C53.4903 40.8295 53.4814 40.8577 53.4695 40.8846C53.4581 40.9052 53.4416 40.9226 53.4215 40.935L53.2079 41.0574C53.2019 41.0615 53.1948 41.0637 53.1875 41.0637C53.1802 41.0637 53.1731 41.0615 53.1671 41.0574C53.1608 41.0498 53.156 41.041 53.1531 41.0315C53.1502 41.022 53.1493 41.012 53.1503 41.0022C53.1552 40.8937 53.1745 40.7863 53.2079 40.683C53.2447 40.5619 53.2929 40.4446 53.3519 40.3326C53.4113 40.2201 53.4821 40.1139 53.5631 40.0158C53.6361 39.9242 53.7247 39.8463 53.8247 39.7854ZM53.9279 42.015C53.9346 42.0084 53.9437 42.0047 53.9531 42.0047C53.9625 42.0047 53.9716 42.0084 53.9783 42.015C53.9862 42.0232 53.9922 42.0331 53.9959 42.0438C53.9996 42.0546 54.001 42.066 53.9999 42.0774V42.4326C53.9999 42.4635 53.9924 42.4939 53.9783 42.5214C53.9681 42.5468 53.9506 42.5685 53.9279 42.5838L53.7023 42.7134C53.6957 42.7193 53.6871 42.7226 53.6783 42.7226C53.6694 42.7226 53.6609 42.7193 53.6543 42.7134C53.6462 42.7048 53.6401 42.6945 53.6364 42.6834C53.6327 42.6722 53.6314 42.6603 53.6327 42.6486V42.2958C53.6327 42.2649 53.6401 42.2345 53.6543 42.207C53.6637 42.1819 53.6804 42.1601 53.7023 42.1446L53.9279 42.015Z" fill="#455A64"/>
<path d="M38.8198 47.6547C38.7667 47.655 38.7149 47.6377 38.6726 47.6055C38.6304 47.5733 38.6 47.528 38.5863 47.4767C38.5725 47.4253 38.5762 47.3709 38.5968 47.3219C38.6173 47.2729 38.6536 47.2321 38.6998 47.2059L54.1366 38.2947C54.1639 38.2787 54.194 38.2683 54.2253 38.264C54.2566 38.2597 54.2884 38.2616 54.3189 38.2696C54.3495 38.2776 54.3781 38.2916 54.4033 38.3107C54.4284 38.3299 54.4495 38.3538 54.4654 38.3811C54.4813 38.4084 54.4916 38.4387 54.4957 38.4701C54.4998 38.5015 54.4977 38.5334 54.4894 38.5639C54.4812 38.5945 54.467 38.6231 54.4476 38.6482C54.4282 38.6732 54.4041 38.6942 54.3766 38.7099L38.9398 47.6235C38.9032 47.6442 38.8618 47.6549 38.8198 47.6547Z" fill="#FAFAFA"/>
<path d="M38.8198 49.4132C38.7667 49.4136 38.7149 49.3963 38.6726 49.3641C38.6304 49.3319 38.6 49.2866 38.5863 49.2352C38.5725 49.1839 38.5762 49.1295 38.5968 49.0804C38.6173 49.0314 38.6536 48.9906 38.6998 48.9644L48.4486 43.3484C48.504 43.3166 48.5697 43.3081 48.6314 43.3247C48.6931 43.3414 48.7456 43.3819 48.7774 43.4372C48.8092 43.4926 48.8178 43.5584 48.8011 43.62C48.7844 43.6817 48.744 43.7342 48.6886 43.766L38.9398 49.382C38.9032 49.4028 38.8618 49.4135 38.8198 49.4132Z" fill="#FAFAFA"/>
<path d="M38.8197 51.1867C38.7774 51.1868 38.7358 51.1758 38.6991 51.1548C38.6625 51.1337 38.632 51.1033 38.6109 51.0667C38.5796 51.0116 38.5714 50.9463 38.588 50.8852C38.6046 50.824 38.6448 50.7719 38.6997 50.7403L48.4485 45.1219C48.5039 45.09 48.5696 45.0815 48.6313 45.0982C48.6929 45.1148 48.7455 45.1553 48.7773 45.2107C48.8091 45.266 48.8176 45.3318 48.801 45.3935C48.7843 45.4551 48.7439 45.5076 48.6885 45.5395L38.9397 51.1555C38.9031 51.1762 38.8617 51.187 38.8197 51.1867Z" fill="#FAFAFA"/>
<path d="M33.9456 57.0008C33.408 57.3128 32.9712 56.9816 32.9712 56.264C32.9712 55.5464 33.408 54.7112 33.9456 54.4016C34.4832 54.092 34.92 54.4208 34.92 55.1384C34.92 55.856 34.4832 56.6912 33.9456 57.0008Z" fill="#455A64"/>
<path d="M34.2864 55.5421L33.6 55.9333C33.5484 55.9696 33.5054 56.0168 33.4739 56.0715C33.4424 56.1263 33.4232 56.1872 33.4176 56.2501L33.3696 56.6701C33.5424 57.0901 34.3296 56.5765 34.4976 55.9501L34.464 55.6381C34.4544 55.5325 34.3776 55.4893 34.2864 55.5421Z" fill="#FAFAFA"/>
<path d="M34.2696 54.9616C34.2676 55.0829 34.2373 55.2021 34.1811 55.3097C34.1248 55.4172 34.0442 55.51 33.9456 55.5808C33.7656 55.684 33.6216 55.5808 33.6216 55.3408C33.6233 55.2194 33.6536 55.1002 33.7098 54.9926C33.7661 54.8851 33.8469 54.7922 33.9456 54.7216C34.1232 54.6136 34.2696 54.7216 34.2696 54.9616Z" fill="#FAFAFA"/>
<path d="M48.2856 67.5472C48.2856 66.3856 47.4696 65.9128 46.4616 66.496L38.4 71.1472C37.8691 71.4926 37.4272 71.9585 37.1102 72.5069C36.7933 73.0553 36.6102 73.6707 36.576 74.3032V75.0952C36.576 75.1408 36.576 75.184 36.576 75.2296C36.576 76.408 36.4368 78.2248 35.376 78.712C35.376 78.712 36.0744 78.9184 36.828 78.1288C37.2501 77.6313 37.5399 77.0353 37.6704 76.396C37.925 76.3692 38.1706 76.2873 38.3904 76.156L46.4616 71.5024C46.9925 71.157 47.4344 70.6911 47.7513 70.1427C48.0683 69.5943 48.2513 68.9789 48.2856 68.3464V67.5472Z" fill="#E0E0E0"/>
<path d="M33.9456 80.6414C33.408 80.9534 32.9712 80.6222 32.9712 79.9046C32.9712 79.187 33.408 78.3518 33.9456 78.0422C34.4832 77.7326 34.92 78.0614 34.92 78.779C34.92 79.4966 34.4832 80.3342 33.9456 80.6414Z" fill="#455A64"/>
<path d="M34.2864 79.1827L33.6 79.5739C33.5484 79.6103 33.5054 79.6575 33.4739 79.7122C33.4424 79.7669 33.4232 79.8278 33.4176 79.8907L33.3696 80.3107C33.5424 80.7307 34.3296 80.2171 34.4976 79.5907L34.464 79.2787C34.4544 79.1731 34.3776 79.1299 34.2864 79.1827Z" fill="#FAFAFA"/>
<path d="M34.2696 78.6019C34.2676 78.7232 34.2373 78.8424 34.1811 78.9499C34.1248 79.0574 34.0442 79.1503 33.9456 79.2211C33.7656 79.3243 33.6216 79.2211 33.6216 78.9811C33.6233 78.8597 33.6536 78.7404 33.7098 78.6329C33.7661 78.5253 33.8469 78.4325 33.9456 78.3619C34.1232 78.2539 34.2696 78.3643 34.2696 78.6019Z" fill="#FAFAFA"/>
<path d="M38.6518 72.9872C38.5987 72.9876 38.5469 72.9703 38.5047 72.9381C38.4624 72.9059 38.432 72.8606 38.4183 72.8092C38.4046 72.7579 38.4083 72.7035 38.4288 72.6545C38.4494 72.6055 38.4856 72.5646 38.5318 72.5384L46.2502 68.0961C46.2776 68.0787 46.3081 68.067 46.34 68.0618C46.372 68.0565 46.4046 68.0578 46.4361 68.0655C46.4675 68.0732 46.4971 68.0872 46.523 68.1066C46.5489 68.126 46.5706 68.1505 46.5868 68.1785C46.603 68.2065 46.6133 68.2375 46.6172 68.2697C46.6211 68.3018 46.6185 68.3344 46.6095 68.3655C46.6005 68.3965 46.5853 68.4255 46.5648 68.4505C46.5443 68.4756 46.5189 68.4962 46.4902 68.5112L38.7718 72.9609C38.7348 72.9799 38.6934 72.989 38.6518 72.9872Z" fill="#FAFAFA"/>
<path d="M38.6518 74.5173C38.5987 74.5176 38.5469 74.5004 38.5047 74.4682C38.4624 74.4359 38.432 74.3906 38.4183 74.3393C38.4046 74.2879 38.4083 74.2335 38.4288 74.1845C38.4494 74.1355 38.4856 74.0947 38.5318 74.0685L46.2502 69.6261C46.2776 69.6102 46.3079 69.5999 46.3393 69.5958C46.3707 69.5917 46.4026 69.5938 46.4331 69.6021C46.4637 69.6103 46.4923 69.6245 46.5173 69.6439C46.5424 69.6633 46.5634 69.6874 46.579 69.7149C46.6103 69.77 46.6185 69.8352 46.6019 69.8964C46.5853 69.9575 46.5451 70.0096 46.4902 70.0413L38.7718 74.4837C38.7358 74.506 38.6942 74.5177 38.6518 74.5173Z" fill="#FAFAFA"/>
<path d="M56.2152 72.4547C56.2152 71.2907 55.3992 70.8203 54.3912 71.4011L38.4 80.6411C37.8691 80.9866 37.4272 81.4524 37.1102 82.0008C36.7933 82.5492 36.6102 83.1647 36.576 83.7971V87.4835C36.576 87.5315 36.576 87.5747 36.576 87.6179C36.576 88.7963 36.4368 90.6131 35.376 91.1003C35.376 91.1003 36.0744 91.3067 36.828 90.5171C37.2506 90.0199 37.5404 89.4238 37.6704 88.7843C37.9252 88.7586 38.1711 88.6766 38.3904 88.5443L54.3912 79.3091C54.9221 78.9637 55.364 78.4979 55.6809 77.9495C55.9979 77.4011 56.1809 76.7856 56.2152 76.1531V72.4547Z" fill="#E0E0E0"/>
<path d="M33.9456 93.0273C33.408 93.3369 32.9712 93.0057 32.9712 92.2905C32.9712 91.5753 33.408 90.7377 33.9456 90.4257C34.4832 90.1137 34.92 90.4473 34.92 91.1649C34.92 91.8825 34.4832 92.7153 33.9456 93.0273Z" fill="#455A64"/>
<path d="M34.2864 91.5615L33.6 91.9551C33.5484 91.9915 33.5054 92.0387 33.4739 92.0934C33.4424 92.1481 33.4232 92.209 33.4176 92.2719L33.3696 92.6895C33.5424 93.1095 34.3296 92.5983 34.4976 91.9695L34.464 91.6599C34.4544 91.5519 34.3776 91.5087 34.2864 91.5615Z" fill="#FAFAFA"/>
<path d="M34.2696 90.985C34.2673 91.106 34.2368 91.2247 34.1805 91.3318C34.1243 91.4388 34.0438 91.5313 33.9456 91.6018C33.7656 91.705 33.6216 91.6018 33.6216 91.3618C33.6233 91.2408 33.6536 91.1219 33.7099 91.0147C33.7662 90.9076 33.8469 90.8152 33.9456 90.745C34.1232 90.637 34.2696 90.745 34.2696 90.985Z" fill="#FAFAFA"/>
<path d="M38.8198 82.885C38.7667 82.8853 38.7149 82.8681 38.6726 82.8358C38.6304 82.8036 38.6 82.7583 38.5863 82.707C38.5725 82.6556 38.5762 82.6012 38.5968 82.5522C38.6173 82.5032 38.6536 82.4624 38.6998 82.4362L54.2998 73.4314C54.3271 73.4154 54.3572 73.405 54.3885 73.4007C54.4198 73.3964 54.4516 73.3983 54.4821 73.4063C54.5127 73.4143 54.5413 73.4283 54.5665 73.4474C54.5916 73.4666 54.6127 73.4905 54.6286 73.5178C54.6445 73.5452 54.6548 73.5754 54.6589 73.6068C54.663 73.6382 54.6609 73.6701 54.6526 73.7006C54.6444 73.7312 54.6302 73.7598 54.6108 73.7849C54.5914 73.8099 54.5673 73.8309 54.5398 73.8466L38.9398 82.8514C38.9035 82.8729 38.8621 82.8845 38.8198 82.885Z" fill="#FAFAFA"/>
<path d="M38.8198 84.6422C38.7667 84.6426 38.7149 84.6253 38.6726 84.5931C38.6304 84.5609 38.6 84.5156 38.5863 84.4642C38.5725 84.4129 38.5762 84.3584 38.5968 84.3094C38.6173 84.2604 38.6536 84.2196 38.6998 84.1934L54.2998 75.2054C54.3271 75.1881 54.3577 75.1764 54.3896 75.1711C54.4215 75.1659 54.4542 75.1672 54.4857 75.1749C54.5171 75.1826 54.5466 75.1965 54.5725 75.216C54.5984 75.2354 54.6201 75.2598 54.6363 75.2879C54.6525 75.3159 54.6629 75.3469 54.6668 75.379C54.6707 75.4112 54.6681 75.4438 54.6591 75.4748C54.65 75.5059 54.6348 75.5349 54.6143 75.5599C54.5938 75.585 54.5685 75.6056 54.5398 75.6206L38.9398 84.6086C38.9035 84.6302 38.8621 84.6418 38.8198 84.6422Z" fill="#FAFAFA"/>
<path d="M38.8198 86.4157C38.7667 86.416 38.7149 86.3988 38.6726 86.3665C38.6304 86.3343 38.6 86.289 38.5863 86.2377C38.5725 86.1863 38.5762 86.1319 38.5968 86.0829C38.6173 86.0339 38.6536 85.9931 38.6998 85.9669L54.2998 76.9789C54.3271 76.9615 54.3577 76.9498 54.3896 76.9446C54.4215 76.9393 54.4542 76.9406 54.4857 76.9483C54.5171 76.956 54.5466 76.97 54.5725 76.9894C54.5984 77.0088 54.6201 77.0333 54.6363 77.0613C54.6525 77.0893 54.6629 77.1203 54.6668 77.1525C54.6707 77.1846 54.6681 77.2172 54.6591 77.2483C54.65 77.2794 54.6348 77.3083 54.6143 77.3334C54.5938 77.3584 54.5685 77.3791 54.5398 77.3941L38.9398 86.3821C38.9035 86.4036 38.8621 86.4152 38.8198 86.4157Z" fill="#FAFAFA"/>
<path d="M80.3997 92.8045C80.3541 91.7005 79.7181 80.4805 79.7181 80.4805L85.3101 84.5077C84.4389 90.8749 84.0717 92.8213 84.0093 93.8821C84.0292 93.971 84.0357 94.0624 84.0285 94.1533C83.9733 95.4133 82.4517 96.0421 81.2517 96.8413C80.2268 97.5465 79.1446 98.1647 78.0165 98.6893C77.1525 99.0637 75.4293 99.0421 75.2373 98.5165C76.6989 97.5349 78.3861 96.4645 79.5573 95.3269C80.1165 94.7845 80.4477 94.1317 80.3997 92.8045Z" fill="#FFA8A7"/>
<path d="M73.5288 99.8022C73.4616 99.8022 73.3296 100.558 73.6848 100.897C74.0976 101.285 75.3264 101.945 76.9896 101.787C78.6528 101.629 79.5672 101.139 80.2512 100.599C80.9352 100.059 81.8928 99.2982 82.6512 99.159C83.352 99.027 84.12 98.7342 84.3504 98.523C84.5808 98.3118 84.5904 97.3398 84.5904 97.3398L73.5288 99.8022Z" fill="#263238"/>
<path d="M84.0237 93.5742C84.0807 93.5799 84.1338 93.6057 84.1734 93.6471C84.213 93.6884 84.2365 93.7426 84.2397 93.7998C84.2805 94.0686 84.3261 94.8534 84.4197 95.2974C84.5493 95.9142 84.6597 97.179 84.5397 97.6734C84.4197 98.1678 83.2845 98.475 82.5501 98.7294C81.682 99.0784 80.8726 99.5584 80.1501 100.153C79.3485 100.777 77.6877 101.372 76.6077 101.353C74.9613 101.319 73.9125 100.825 73.6053 100.213C73.2261 99.4518 73.3652 98.9286 75.2973 98.103C76.0341 97.7477 76.7511 97.3527 77.4453 96.9198C78.5526 96.2395 79.4227 95.2336 79.9365 94.0398C79.986 93.8809 80.0874 93.7431 80.2244 93.6486C80.3421 93.6018 80.4717 93.5942 80.5941 93.627C80.9061 93.6822 81.8133 93.831 82.0965 93.9822C82.3797 94.1334 82.7013 94.2702 82.6821 94.599C82.6712 94.7138 82.6428 94.8263 82.5981 94.9326C82.5717 94.9998 82.5525 95.0886 82.5981 95.1318C82.6437 95.175 82.7253 95.1318 82.7781 95.0886C82.9706 94.9007 83.1488 94.6986 83.3109 94.4838C83.4021 94.3713 83.5069 94.2706 83.6229 94.1838C83.7374 94.1237 83.8481 94.0564 83.9541 93.9822C83.9541 93.9822 84.0117 93.7302 84.0237 93.5742Z" fill="#455A64"/>
<path d="M75.2398 98.0977C77.6158 98.3497 78.6118 99.9145 78.3094 101.045C77.7599 101.234 77.1842 101.336 76.603 101.347C74.9566 101.314 73.8406 100.819 73.5334 100.205C73.1758 99.4873 73.5238 98.6905 75.2398 98.0977Z" fill="#FAFAFA"/>
<path d="M78.4798 98.4432C78.4932 98.4446 78.5067 98.4432 78.5195 98.4391C78.5323 98.4349 78.5441 98.4282 78.5542 98.4192C78.5667 98.4099 78.5773 98.3983 78.5853 98.3849C78.5933 98.3716 78.5985 98.3568 78.6008 98.3414C78.603 98.326 78.6021 98.3103 78.5983 98.2952C78.5944 98.2801 78.5876 98.266 78.5782 98.2536C78.3133 97.953 77.9866 97.7133 77.6204 97.5509C77.2542 97.3885 76.8571 97.3073 76.4566 97.3128C76.4411 97.314 76.426 97.3182 76.4122 97.3253C76.3984 97.3323 76.3861 97.3421 76.3761 97.3539C76.3661 97.3657 76.3585 97.3794 76.3537 97.3942C76.349 97.409 76.3473 97.4245 76.3486 97.44C76.3492 97.4552 76.3528 97.4702 76.3594 97.484C76.3659 97.4978 76.3752 97.5101 76.3867 97.5202C76.3981 97.5303 76.4115 97.5379 76.426 97.5427C76.4405 97.5475 76.4558 97.5493 76.471 97.548C76.8328 97.5465 77.1908 97.6214 77.5217 97.7678C77.8525 97.9142 78.1488 98.1288 78.391 98.3976C78.4013 98.4115 78.4147 98.4228 78.4301 98.4307C78.4454 98.4386 78.4625 98.4429 78.4798 98.4432Z" fill="#F0F0F0"/>
<path d="M79.4397 97.8636C79.4665 97.8641 79.4927 97.8557 79.5141 97.8396C79.5387 97.8198 79.5547 97.7913 79.5587 97.76C79.5627 97.7286 79.5545 97.697 79.5357 97.6716C79.2714 97.3704 78.9448 97.1303 78.5784 96.9678C78.2121 96.8054 77.8148 96.7245 77.4141 96.7308C77.3984 96.7319 77.383 96.7361 77.3689 96.7432C77.3547 96.7502 77.3421 96.76 77.3317 96.7719C77.3214 96.7838 77.3135 96.7977 77.3085 96.8127C77.3034 96.8276 77.3014 96.8435 77.3025 96.8592C77.3036 96.875 77.3078 96.8904 77.3149 96.9045C77.3219 96.9186 77.3317 96.9312 77.3436 96.9416C77.3556 96.952 77.3694 96.9599 77.3844 96.9649C77.3994 96.9699 77.4152 96.9719 77.4309 96.9708C77.7926 96.9687 78.1506 97.0431 78.4815 97.1891C78.8124 97.3351 79.1087 97.5494 79.3509 97.818C79.3617 97.8314 79.3752 97.8424 79.3905 97.8503C79.4058 97.8581 79.4226 97.8627 79.4397 97.8636Z" fill="#F0F0F0"/>
<path d="M80.3997 97.119C80.4265 97.1199 80.4529 97.1114 80.4741 97.095C80.4985 97.0756 80.5144 97.0475 80.5184 97.0166C80.5225 96.9856 80.5143 96.9544 80.4957 96.9294C80.2311 96.6286 79.9044 96.3887 79.5381 96.2263C79.1718 96.0638 78.7747 95.9827 78.3741 95.9886C78.3423 95.9908 78.3126 96.0056 78.2917 96.0297C78.2708 96.0537 78.2603 96.0851 78.2625 96.117C78.2647 96.1488 78.2795 96.1784 78.3036 96.1994C78.3277 96.2203 78.3591 96.2308 78.3909 96.2286C78.7527 96.2274 79.1106 96.3024 79.4414 96.4488C79.7722 96.5952 80.0685 96.8096 80.3109 97.0782C80.3215 97.0915 80.335 97.1021 80.3504 97.1092C80.3659 97.1163 80.3827 97.1196 80.3997 97.119Z" fill="#F0F0F0"/>
<path d="M81.324 96.3729C81.3507 96.3754 81.3773 96.3677 81.3984 96.3513C81.411 96.3421 81.4215 96.3305 81.4295 96.3171C81.4375 96.3038 81.4428 96.289 81.445 96.2736C81.4473 96.2582 81.4464 96.2425 81.4425 96.2274C81.4386 96.2123 81.4318 96.1982 81.4224 96.1857C80.9904 95.5833 79.9824 95.1585 79.104 95.2257C79.0887 95.2266 79.0736 95.2306 79.0599 95.2374C79.0461 95.2442 79.0338 95.2537 79.0237 95.2654C79.0136 95.277 79.006 95.2905 79.0012 95.3051C78.9965 95.3198 78.9947 95.3352 78.996 95.3505C78.9979 95.3813 79.0118 95.4101 79.0346 95.4308C79.0575 95.4514 79.0876 95.4623 79.1184 95.4609C79.9008 95.4033 80.8512 95.7921 81.2352 96.3249C81.245 96.3396 81.2582 96.3516 81.2737 96.36C81.2891 96.3683 81.3064 96.3728 81.324 96.3729Z" fill="#F0F0F0"/>
<path d="M90.5205 83.9371L96.4101 82.9531C96.4869 86.4451 96.2373 91.1131 96.1221 94.3219C96.1005 94.9387 96.3621 99.1099 96.1629 100.387C95.8581 102.307 93.2829 102.127 93.0933 100.989C92.9037 99.8515 92.8149 95.0131 92.7837 94.5091C92.7069 92.4091 91.5837 88.8571 90.8181 85.1059C90.7821 84.9259 90.5565 84.1171 90.5205 83.9371Z" fill="#FFA8A7"/>
<path d="M92.1597 101.813C92.1597 102.934 92.3061 103.687 92.7117 104.369C93.1173 105.051 93.9525 105.303 94.8237 105.161C95.6949 105.019 96.8301 104.568 97.1397 103.62C97.4493 102.672 97.4445 102.007 97.3173 100.961L92.1597 101.813Z" fill="#263238"/>
<path d="M96.1366 93.9648C96.4894 94.0104 96.475 95.4696 96.5806 96.984C96.691 98.6064 97.1926 99.3024 97.3006 100.634C97.423 102.154 97.2886 102.823 96.6286 103.699C95.9686 104.575 93.7894 105.35 92.8294 103.982C92.0494 102.869 92.0926 101.688 92.2702 100.186C92.4528 98.9169 92.5642 97.6389 92.6038 96.3576C92.6038 95.2248 92.4358 94.1664 92.7526 94.0584C92.7526 94.2264 92.7742 94.4376 92.7862 94.6032C92.7982 94.728 92.7862 95.3424 92.9902 95.3592C93.0157 95.2191 93.027 95.0768 93.0238 94.9344C93.0171 94.8694 93.0243 94.8036 93.045 94.7415C93.0657 94.6794 93.0993 94.6225 93.1438 94.5744C93.3164 94.4771 93.5079 94.4182 93.7054 94.4016C94.0582 94.3608 94.411 94.3272 94.7662 94.32C94.9438 94.32 95.1214 94.32 95.299 94.32C95.4503 94.3262 95.5999 94.3545 95.743 94.404C95.7831 94.417 95.82 94.4383 95.8514 94.4664C95.8828 94.4945 95.908 94.5288 95.9254 94.5672C95.9374 94.6242 95.9374 94.6831 95.9254 94.74C95.9201 94.8446 95.9282 94.9495 95.9494 95.052C95.9494 95.0976 95.9902 95.1552 96.043 95.1456C96.0958 95.136 96.103 95.0952 96.1054 95.0592C96.1198 94.8768 96.1054 94.7424 96.1054 94.5312C96.1054 94.4328 96.1054 94.3392 96.1054 94.2408C96.1054 94.1424 96.1366 94.0608 96.1366 93.9648Z" fill="#455A64"/>
<path d="M97.339 101.52C97.339 102.461 97.2358 103.097 96.7198 103.785C96.0598 104.661 93.7078 105.427 92.7502 104.061C92.2702 103.382 92.1838 102.605 92.1646 101.817C92.8582 100.843 96.4078 100.603 97.339 101.52Z" fill="#FAFAFA"/>
<path d="M93.1821 100.226H93.2253C94.221 99.9178 95.2811 99.883 96.2949 100.125C96.3274 100.134 96.3621 100.131 96.3926 100.116C96.423 100.102 96.4472 100.077 96.4605 100.046C96.4643 100.03 96.465 100.014 96.4625 99.9983C96.46 99.9825 96.4543 99.9675 96.4457 99.954C96.4372 99.9405 96.426 99.9289 96.4129 99.9199C96.3997 99.9109 96.3849 99.9047 96.3693 99.9016C95.2988 99.6412 94.1776 99.6786 93.1269 100.01C93.1115 100.014 93.0972 100.021 93.085 100.031C93.0728 100.042 93.063 100.054 93.0561 100.069C93.0493 100.083 93.0456 100.099 93.0454 100.115C93.0452 100.13 93.0484 100.146 93.0549 100.161C93.0678 100.182 93.0866 100.2 93.1091 100.211C93.1316 100.223 93.1569 100.228 93.1821 100.226Z" fill="#F0F0F0"/>
<path d="M96.2856 98.9879C96.3096 98.9878 96.3331 98.9809 96.3534 98.9682C96.3738 98.9555 96.3902 98.9374 96.4008 98.9159C96.4073 98.9014 96.4105 98.8856 96.4103 98.8697C96.4101 98.8538 96.4064 98.8381 96.3996 98.8238C96.3927 98.8094 96.3829 98.7967 96.3707 98.7865C96.3585 98.7763 96.3442 98.7689 96.3288 98.7647C94.7736 98.1983 93.1608 98.8199 93.0912 98.8463C93.0762 98.8512 93.0624 98.8593 93.0508 98.87C93.0392 98.8807 93.03 98.8938 93.0238 98.9083C93.0177 98.9229 93.0147 98.9386 93.0152 98.9544C93.0156 98.9702 93.0195 98.9857 93.0264 98.9999C93.0439 99.0283 93.0707 99.0497 93.1024 99.0602C93.134 99.0707 93.1683 99.0698 93.1992 99.0575C93.216 99.0575 94.7832 98.4503 96.2304 98.9783C96.248 98.9852 96.2668 98.9884 96.2856 98.9879Z" fill="#F0F0F0"/>
<path d="M96.2641 97.9198C96.2877 97.9196 96.3109 97.913 96.3312 97.9008C96.3515 97.8885 96.3681 97.871 96.3793 97.8502C96.3858 97.8358 96.3892 97.8202 96.3893 97.8044C96.3894 97.7886 96.3862 97.7729 96.3799 97.7584C96.3735 97.7439 96.3642 97.7309 96.3525 97.7203C96.3409 97.7096 96.3271 97.7016 96.3121 97.6966C95.241 97.3077 94.0634 97.3325 93.0097 97.7662C92.9948 97.772 92.9814 97.7809 92.9704 97.7924C92.9593 97.8039 92.9508 97.8176 92.9456 97.8327C92.9404 97.8477 92.9384 97.8637 92.94 97.8796C92.9415 97.8955 92.9464 97.9108 92.9545 97.9246C92.9735 97.9524 93.0019 97.9725 93.0344 97.9813C93.067 97.9901 93.1016 97.987 93.1321 97.9726C94.1145 97.5754 95.2087 97.5532 96.2065 97.9102C96.2249 97.9169 96.2444 97.9201 96.2641 97.9198Z" fill="#F0F0F0"/>
<path d="M96.2396 96.7189C96.2631 96.7192 96.2862 96.7131 96.3065 96.7012C96.3268 96.6894 96.3435 96.6723 96.3548 96.6517C96.3617 96.6373 96.3655 96.6217 96.3658 96.6057C96.3661 96.5898 96.3629 96.574 96.3565 96.5594C96.3501 96.5448 96.3407 96.5318 96.3288 96.5212C96.3169 96.5106 96.3028 96.5027 96.2876 96.4981C94.6892 95.8645 93.0308 96.5677 92.9612 96.5989C92.9465 96.6045 92.9331 96.6132 92.9221 96.6244C92.911 96.6356 92.9024 96.649 92.897 96.6638C92.8915 96.6786 92.8893 96.6943 92.8904 96.71C92.8916 96.7258 92.8961 96.741 92.9036 96.7549C92.9215 96.7834 92.9491 96.8044 92.9813 96.8141C93.0135 96.8238 93.0481 96.8215 93.0788 96.8077C93.0956 96.8077 94.6964 96.1189 96.182 96.7093C96.2005 96.716 96.22 96.7192 96.2396 96.7189Z" fill="#EBEBEB"/>
<path d="M94.3463 56.831C94.7135 63.551 95.5463 75.8966 95.5463 75.8966C95.6255 76.679 96.3407 80.1326 96.4127 82.9526C96.5303 87.479 96.3503 90.6182 96.3503 90.6182C96.3503 90.6182 93.8567 91.547 92.0567 90.8318C92.0567 90.8318 89.7551 81.7118 89.1527 78.7766C88.4327 75.263 86.7335 68.375 86.7335 68.375L85.5335 77.6534C85.5335 77.6534 85.9103 80.9582 85.5335 83.687C85.2767 85.547 84.5735 90.4214 84.5735 90.4214C84.5735 90.4214 82.1735 91.187 80.2175 90.563C80.2175 90.563 79.4327 78.4526 79.3151 76.739C79.1975 75.0254 78.8111 66.227 79.2311 55.4102L94.3463 56.831Z" fill="#455A64"/>
<path d="M86.7309 68.3736L85.7277 62.3736C84.4741 62.2998 83.2856 61.7905 82.3677 60.9336C82.3677 60.9336 82.5237 62.3184 85.2045 63.2064L86.1237 68.196L85.5333 77.664L86.7309 68.3736Z" fill="#37474F"/>
<path d="M81.2758 37.1719C79.3342 37.3975 78.5374 38.8039 77.4598 40.9975C76.6006 42.7447 74.9182 46.6903 74.9182 46.6903C74.9182 46.6903 69.6598 45.3679 68.7238 44.7703C68.0806 44.3647 68.2006 44.1055 67.1398 43.4191C66.3934 42.9391 65.599 42.6991 65.1334 42.2191C64.7614 41.8423 64.1734 42.4447 64.7662 43.2535C64.9537 43.4818 65.1626 43.6916 65.3902 43.8799C65.0019 43.8022 64.6294 43.6594 64.2886 43.4575C63.4462 42.8551 63.0742 42.0871 62.035 41.9647C61.5958 41.9119 61.5094 42.2167 61.6726 42.5551C61.6053 42.5852 61.5451 42.6291 61.4959 42.6839C61.4466 42.7388 61.4095 42.8034 61.3868 42.8736C61.3642 42.9438 61.3566 43.0179 61.3645 43.0912C61.3724 43.1645 61.3956 43.2353 61.4326 43.2991C61.1782 43.3711 61.159 43.8775 61.255 44.0191C61.1254 44.2063 60.9094 44.7535 61.867 45.8143C62.358 46.3296 62.9064 46.787 63.5014 47.1775C64.2649 47.4116 65.0414 47.6007 65.827 47.7439C66.7016 47.8899 67.5524 48.1531 68.3566 48.5263C69.5158 49.0063 72.4486 50.5255 75.0502 51.4927C77.2102 52.2967 77.8222 51.0607 78.847 49.1383C79.5262 47.8687 81.1078 43.6639 81.1078 43.6639C81.919 41.1511 82.027 38.7247 81.2758 37.1719Z" fill="#FFA8A7"/>
<path d="M64.6821 45.5288C65.9661 45.0488 67.3749 45.6152 67.8021 46.6544C67.7998 46.3528 67.7096 46.0584 67.5425 45.8073C67.3754 45.5562 67.1386 45.3594 66.8613 45.2408C66.3333 44.984 65.3541 45.0536 64.6821 45.5288Z" fill="#F28F8F"/>
<path d="M81.1197 37.1719C79.2957 37.5511 78.8805 37.9615 77.5533 40.6423C76.2501 43.2823 74.8317 46.5511 74.8317 46.5511L71.4261 45.7375C71.4261 45.7375 71.6229 46.3807 71.2293 47.7559C70.8357 49.1311 70.0293 49.5511 70.0293 49.5511C70.0293 49.5511 72.6549 50.8831 74.7285 51.6391C76.8021 52.3951 77.2557 52.0303 77.9181 51.0727C78.5805 50.1151 81.5181 43.3111 81.5181 43.3111C81.5181 43.3111 82.6701 39.1975 81.1197 37.1719Z" fill="#455A64"/>
<path d="M71.6063 45.7842L70.2191 45.3594C70.3393 45.9841 70.313 46.6282 70.1423 47.241C69.7367 48.6474 69.0215 49.0866 69.0215 49.0866L70.4087 49.773C70.4087 49.773 71.9423 48.0258 71.6063 45.7842Z" fill="#37474F"/>
<path d="M80.0327 41.8704C80.3423 39.6264 81.3575 36.5352 84.8327 36.3984L88.6007 36.6864C89.7047 36.9744 93.8279 38.2536 93.8279 38.2536L94.0799 47.2176C94.0799 47.2176 94.3559 52.9632 94.2719 56.7192C91.0583 58.7568 83.6663 59.4912 79.2743 56.16C79.1471 53.0592 79.7279 44.0928 80.0327 41.8704Z" fill="#F0F0F0"/>
<path d="M81.5517 28.6826C80.9757 27.3842 81.5229 25.6538 82.1949 24.8426C83.1693 23.6642 84.6933 23.1626 86.9949 23.2778C88.7445 23.3762 90.4701 24.0938 90.8085 25.8866C92.2173 26.297 92.0709 28.6082 91.7253 29.6282C91.0293 31.6994 89.6445 33.5066 89.6253 34.5626L81.5517 28.6826Z" fill="#263238"/>
<path d="M81.5807 33.5454C81.8639 34.5414 82.4447 35.2686 83.3687 35.4078C83.8532 35.4535 84.341 35.4535 84.8255 35.4078V36.747C83.2799 38.9502 88.0799 39.1206 89.7239 36.7206L89.6831 32.6166C89.6831 32.6166 90.2519 33.255 91.1783 32.643C91.552 32.3627 91.8176 31.9619 91.9299 31.5084C92.0423 31.055 91.9947 30.5766 91.7951 30.1542C91.3295 29.1942 90.4079 29.5902 90.1151 29.8878C89.8223 30.1854 89.5199 30.7446 89.2799 30.6678C89.143 30.6269 89.0185 30.5523 88.9179 30.4508C88.8172 30.3493 88.7437 30.2242 88.7039 30.087C88.4841 29.4828 88.3776 28.8434 88.3895 28.2006C88.1399 28.0766 87.9172 27.9045 87.7343 27.6942C87.3335 27.255 87.2975 26.7342 87.2783 26.2542C85.2815 25.6422 82.7399 25.911 81.9143 26.5566C81.4343 27.399 81.4343 29.3526 81.3647 30.4782C81.2655 31.5055 81.3385 32.5421 81.5807 33.5454Z" fill="#FFA8A7"/>
<path d="M84.8252 35.4062C85.8452 35.3438 87.8972 34.8542 88.4396 34.283C88.982 33.7118 89.2076 32.543 89.2076 32.543C89.2076 32.543 89.1356 34.0142 88.7156 34.667C88.2956 35.3198 87.2324 35.6078 86.5844 35.7734C86.0068 35.8998 85.4228 35.9944 84.8348 36.0566L84.8252 35.4062Z" fill="#F28F8F"/>
<path d="M85.4397 30.0251C85.443 30.108 85.4706 30.188 85.5191 30.2553C85.5676 30.3226 85.6348 30.3741 85.7123 30.4034C85.7899 30.4328 85.8743 30.4386 85.9552 30.4203C86.0361 30.4019 86.1097 30.3602 86.167 30.3003C86.2243 30.2403 86.2628 30.1649 86.2775 30.0833C86.2922 30.0017 86.2825 29.9176 86.2498 29.8414C86.217 29.7652 86.1625 29.7004 86.0932 29.655C86.0238 29.6095 85.9426 29.5855 85.8597 29.5859C85.8031 29.5865 85.7472 29.5985 85.6952 29.621C85.6433 29.6435 85.5964 29.6762 85.5572 29.7171C85.5181 29.758 85.4876 29.8064 85.4674 29.8593C85.4472 29.9122 85.4378 29.9686 85.4397 30.0251Z" fill="#263238"/>
<path d="M82.0798 29.0223L83.1046 28.8495C83.0964 28.7823 83.0747 28.7174 83.0407 28.6588C83.0068 28.6003 82.9612 28.5492 82.9069 28.5088C82.8526 28.4684 82.7906 28.4395 82.7247 28.4238C82.6589 28.4081 82.5905 28.4059 82.5238 28.4175C82.3866 28.4427 82.2643 28.5194 82.1818 28.6318C82.0993 28.7442 82.0628 28.8839 82.0798 29.0223Z" fill="#263238"/>
<path d="M85.6128 28.8515L86.6016 29.1659C86.6253 29.1025 86.6358 29.035 86.6325 28.9674C86.6293 28.8998 86.6123 28.8336 86.5827 28.7728C86.5531 28.7119 86.5114 28.6578 86.4602 28.6135C86.409 28.5693 86.3493 28.536 86.2848 28.5155C86.1511 28.4752 86.007 28.4875 85.882 28.55C85.7571 28.6124 85.6608 28.7203 85.6128 28.8515Z" fill="#263238"/>
<path d="M82.2286 29.965C82.2323 30.0478 82.2603 30.1276 82.3091 30.1945C82.3578 30.2614 82.4252 30.3126 82.5028 30.3415C82.5803 30.3705 82.6647 30.376 82.7454 30.3574C82.8261 30.3388 82.8995 30.2969 82.9566 30.2369C83.0137 30.1769 83.0519 30.1015 83.0664 30.02C83.0809 29.9384 83.0712 29.8544 83.0383 29.7784C83.0055 29.7024 82.9511 29.6377 82.8818 29.5924C82.8125 29.547 82.7314 29.5231 82.6486 29.5234C82.5346 29.5272 82.4267 29.5756 82.3481 29.6582C82.2696 29.7408 82.2266 29.851 82.2286 29.965Z" fill="#263238"/>
<path d="M84.3742 29.0742L84.0862 32.103L82.459 31.623L84.3742 29.0742Z" fill="#F28F8F"/>
<path d="M85.6464 32.4258C85.7132 32.6087 85.7069 32.8103 85.6288 32.9887C85.5507 33.167 85.4067 33.3084 85.227 33.3832C85.0472 33.4581 84.8455 33.4607 84.6639 33.3906C84.4823 33.3204 84.3347 33.1828 84.252 33.0066L85.6464 32.4258Z" fill="#B16668"/>
<path d="M85.5262 32.8282C85.3504 32.8267 85.1801 32.8895 85.0475 33.0049C84.9148 33.1203 84.829 33.2802 84.8062 33.4546C84.9531 33.4823 85.1049 33.4665 85.243 33.409C85.3592 33.3606 85.4614 33.2839 85.5403 33.1858C85.6191 33.0876 85.672 32.9713 85.6942 32.8474C85.6391 32.8346 85.5827 32.8281 85.5262 32.8282Z" fill="#F28F8F"/>
<path d="M79.1854 44.9682C79.5934 41.2098 80.071 38.5194 81.1054 37.173C81.1054 37.173 82.0126 36.8946 84.8278 36.1602V36.4002C84.4676 36.6819 84.1569 37.0218 83.9086 37.4058C83.4502 38.097 82.903 39.273 82.3702 41.301C81.6502 44.0634 81.2782 50.217 81.2422 53.541C81.2062 56.865 81.0574 60.8226 81.0574 60.8226C81.0574 60.8226 79.3774 60.4794 78.751 59.6226C78.7582 59.625 78.8758 47.7978 79.1854 44.9682Z" fill="url(#paint2_linear_6558_83328)"/>
<path d="M88.3197 40.9471C88.6773 39.4327 89.3421 37.0399 89.6733 36.2695L93.89 37.7839C95.0468 38.3167 95.9516 39.1759 95.6612 41.1223L94.4493 49.6807L94.7468 59.4511C92.954 62.2375 87.2493 61.9951 87.2493 61.9951C87.2493 61.9951 87.1532 59.1343 87.326 51.4711C87.422 47.1775 87.8733 42.8791 88.3197 40.9471Z" fill="url(#paint3_linear_6558_83328)"/>
<path d="M88.0176 42.6468C88.3397 40.2828 88.9084 37.9589 89.7144 35.7132V35.082C89.7144 35.082 91.668 36.0924 92.4984 36.5724C92.9634 36.818 93.3414 37.201 93.5808 37.6692L91.9896 37.098C91.9896 37.098 91.2216 37.3836 90.2808 38.4636C89.34 39.5436 88.0176 42.6468 88.0176 42.6468Z" fill="#455A64"/>
<path d="M84.835 35.7134V36.7478C84.1396 37.4588 83.5815 38.2919 83.1886 39.2055C82.7426 40.3246 82.3792 41.4748 82.1014 42.647C81.8311 41.3424 81.8599 39.9934 82.1854 38.7014C82.5382 37.3694 82.9222 36.9134 83.191 36.6206C83.6622 36.1211 84.2189 35.7098 84.835 35.4062V35.7134Z" fill="#455A64"/>
<path d="M98.8654 58.7502C99.1894 57.219 99.6862 55.8222 99.9262 54.483C100.514 51.1902 100.478 50.9286 100.193 49.5414C99.367 45.5262 98.8174 43.4623 98.1262 41.4463C97.1926 38.715 96.883 38.6719 94.0054 37.9062C92.7406 39.0871 92.8054 42.6103 93.6166 44.5255C94.5382 47.3743 95.7574 51.6127 95.7574 51.6127C95.707 52.2775 95.6758 56.5374 95.2198 58.455C95.0638 59.115 94.6126 59.3862 94.231 59.6094C93.511 60.0294 93.2182 61.0255 92.6902 61.5775C92.275 62.0071 91.9534 62.1486 92.0062 62.2854C92.0758 62.4606 92.4166 62.5759 92.9278 62.4415C93.2766 62.3491 93.6004 62.1802 93.8758 61.947C93.9991 61.8144 94.134 61.6931 94.279 61.5847C94.507 61.4575 94.519 61.6831 94.4974 61.8463C94.4477 62.1348 94.3606 62.4155 94.2382 62.6815C94.0608 63.1419 93.8514 63.5894 93.6118 64.0207C93.391 64.4167 93.1534 64.5991 92.7694 65.0815C92.5462 65.3599 92.2366 65.6262 92.1382 65.9694C92.071 66.2094 92.059 66.5863 92.3446 66.6894C92.4766 66.7326 92.6494 66.5742 92.7574 66.507C92.8654 66.4398 93.0502 66.2526 93.2182 66.2238C93.376 66.2214 93.5331 66.2441 93.6838 66.291C93.926 66.3276 94.1736 66.3028 94.4038 66.2191C94.5113 66.1794 94.6099 66.1191 94.6942 66.0415C94.7279 65.9985 94.7675 65.9605 94.8118 65.9287C94.963 65.8663 95.1958 65.9286 95.359 65.8782C95.7454 65.7726 95.9566 65.3982 96.319 65.2494C96.5242 65.166 96.7146 65.0501 96.883 64.9063C97.1343 64.6903 97.3449 64.431 97.5046 64.1406C98.0206 63.0583 98.563 61.6446 98.6566 60.4471C98.6878 59.9191 98.7694 59.3358 98.8654 58.7502Z" fill="#FFA8A7"/>
<path d="M93.854 37.7852C95.5988 38.2436 96.5276 38.3324 97.2764 39.2876C98.0252 40.2428 98.9564 43.8476 99.3884 45.434C99.8204 47.0204 100.38 49.73 100.468 50.234C100.557 50.738 100.536 51.3284 100.274 52.9076C99.974 54.71 99.3572 57.7076 99.3572 57.7076C99.3572 57.7076 98.9156 57.8444 97.4372 57.5444C96.7333 57.4151 96.0377 57.2444 95.354 57.0332L95.6468 51.602L93.1652 43.9508C93.1652 43.9508 91.9196 39.4628 93.854 37.7852Z" fill="#455A64"/>
<path d="M95.3878 56.0312L95.311 57.4977C95.311 57.4977 95.791 58.1168 97.2454 58.3904C98.5174 58.6304 99.2902 58.1072 99.2902 58.1072L99.583 56.6672C98.8906 56.9339 98.1374 57.0012 97.4086 56.8616C95.9158 56.6264 95.3878 56.0312 95.3878 56.0312Z" fill="#37474F"/>
<path d="M66.2784 45.3615C66.2513 45.3465 66.2206 45.339 66.1896 45.3399H66V48.6639L67.9584 46.5615C67.9753 46.5417 67.9876 46.5185 67.9946 46.4934C68.0015 46.4684 68.0028 46.4421 67.9985 46.4165C67.9941 46.3908 67.9842 46.3664 67.9694 46.3451C67.9546 46.3237 67.9353 46.3058 67.9128 46.2927L66.2784 45.3615Z" fill="url(#paint4_linear_6558_83328)"/>
<path opacity="0.3" d="M66.2784 45.3615C66.2513 45.3465 66.2206 45.339 66.1896 45.3399H66V48.6639L67.9584 46.5615C67.9753 46.5417 67.9876 46.5185 67.9946 46.4934C68.0015 46.4684 68.0028 46.4421 67.9985 46.4165C67.9941 46.3908 67.9842 46.3664 67.9694 46.3451C67.9546 46.3237 67.9353 46.3058 67.9128 46.2927L66.2784 45.3615Z" fill="white"/>
<path d="M67.9512 46.5608L66 48.6656V46.2656H67.824C67.8577 46.2667 67.8904 46.2774 67.9182 46.2964C67.9461 46.3154 67.968 46.3419 67.9813 46.3728C67.9946 46.4038 67.9989 46.4379 67.9936 46.4712C67.9882 46.5045 67.9735 46.5356 67.9512 46.5608Z" fill="url(#paint5_linear_6558_83328)"/>
<path d="M66.0001 44.3006C65.9853 44.0337 65.9079 43.774 65.7741 43.5426C65.6402 43.3112 65.4537 43.1145 65.2297 42.9686C64.9912 42.848 64.7277 42.7852 64.4605 42.7852C64.1932 42.7852 63.9298 42.848 63.6913 42.9686L43.2001 54.7886C42.9761 54.9345 42.7896 55.1312 42.6557 55.3626C42.5219 55.594 42.4444 55.8537 42.4297 56.1206V62.7134C42.4441 62.9808 42.5213 63.241 42.6552 63.4728C42.7891 63.7047 42.9758 63.9017 43.2001 64.0478C43.438 64.1704 43.7017 64.2343 43.9693 64.2343C44.2369 64.2343 44.5006 64.1704 44.7385 64.0478L65.2849 52.1774C65.9761 51.7838 65.9833 51.3878 65.9833 50.8982L66.0001 44.3006Z" fill="url(#paint6_linear_6558_83328)"/>
<path opacity="0.2" d="M42.4395 62.7145C42.4538 62.9818 42.5311 63.242 42.665 63.4739C42.7988 63.7057 42.9855 63.9027 43.2099 64.0489C43.4262 64.159 43.6636 64.2217 43.9061 64.2329C44.1486 64.244 44.3907 64.2034 44.6163 64.1137C44.2539 64.2505 43.9779 64.0441 43.9779 63.6049V57.0097C43.9872 56.7418 44.0648 56.4807 44.2035 56.2513L42.6651 55.3633C42.5267 55.5928 42.4491 55.8538 42.4395 56.1217V62.7145Z" fill="black"/>
<path opacity="0.3" d="M65.9667 44.0817C65.8779 43.7553 65.5803 43.6521 65.2251 43.8561L44.7483 55.6809C44.5204 55.8213 44.3333 56.0191 44.2059 56.2545L42.6675 55.3689C42.7963 55.1338 42.983 54.9356 43.2099 54.7929L63.6819 42.9609C63.9208 42.8402 64.1846 42.7773 64.4523 42.7773C64.7199 42.7773 64.9838 42.8402 65.2227 42.9609C65.4165 43.0872 65.5824 43.2518 65.7103 43.4445C65.8383 43.6372 65.9255 43.854 65.9667 44.0817Z" fill="white"/>
<path d="M47.2275 56.9653C47.1744 56.9657 47.1226 56.9484 47.0804 56.9162C47.0381 56.884 47.0077 56.8387 46.994 56.7873C46.9803 56.736 46.984 56.6815 47.0045 56.6325C47.0251 56.5835 47.0613 56.5427 47.1075 56.5165L62.7075 47.5117C62.7624 47.483 62.8262 47.4766 62.8856 47.4939C62.9451 47.5111 62.9956 47.5507 63.0265 47.6043C63.0575 47.6579 63.0666 47.7214 63.0519 47.7815C63.0371 47.8416 62.9998 47.8937 62.9475 47.9269L47.3475 56.9341C47.3109 56.9548 47.2696 56.9656 47.2275 56.9653Z" fill="#FAFAFA"/>
<path d="M47.2275 58.7259C47.1744 58.7263 47.1226 58.709 47.0804 58.6768C47.0381 58.6446 47.0077 58.5992 46.994 58.5479C46.9803 58.4966 46.984 58.4421 47.0045 58.3931C47.0251 58.3441 47.0613 58.3033 47.1075 58.2771L62.7075 49.2891C62.7626 49.2578 62.8279 49.2496 62.889 49.2662C62.9502 49.2829 63.0023 49.323 63.0339 49.3779C63.0654 49.4327 63.074 49.4978 63.0578 49.5589C63.0416 49.62 63.002 49.6722 62.9475 49.7043L47.3475 58.6947C47.3109 58.7154 47.2696 58.7262 47.2275 58.7259Z" fill="#FAFAFA"/>
<path d="M47.2275 60.4954C47.1744 60.4958 47.1226 60.4785 47.0804 60.4463C47.0381 60.4141 47.0077 60.3688 46.994 60.3174C46.9803 60.2661 46.984 60.2117 47.0045 60.1627C47.0251 60.1136 47.0613 60.0728 47.1075 60.0466L62.7075 51.0586C62.7626 51.0273 62.8279 51.0191 62.889 51.0358C62.9502 51.0524 63.0023 51.0925 63.0339 51.1474C63.0654 51.2023 63.074 51.2673 63.0578 51.3284C63.0416 51.3895 63.002 51.4418 62.9475 51.4738L47.3475 60.4642C47.3109 60.485 47.2696 60.4957 47.2275 60.4954Z" fill="#FAFAFA"/>
<defs>
<linearGradient id="paint0_linear_6558_83328" x1="33.5997" y1="40.4062" x2="33.5997" y2="41.2734" gradientUnits="userSpaceOnUse">
<stop stop-color="#F39433"/>
<stop offset="1" stop-color="#F07900"/>
</linearGradient>
<linearGradient id="paint1_linear_6558_83328" x1="36.4498" y1="38.3203" x2="36.4498" y2="39.7519" gradientUnits="userSpaceOnUse">
<stop stop-color="#F39433"/>
<stop offset="1" stop-color="#F07900"/>
</linearGradient>
<linearGradient id="paint2_linear_6558_83328" x1="81.7894" y1="36.1602" x2="81.7894" y2="46.3334" gradientUnits="userSpaceOnUse">
<stop stop-color="#F39433"/>
<stop offset="1" stop-color="#F07900"/>
</linearGradient>
<linearGradient id="paint3_linear_6558_83328" x1="91.4693" y1="36.2695" x2="91.4693" y2="46.8835" gradientUnits="userSpaceOnUse">
<stop stop-color="#F39433"/>
<stop offset="1" stop-color="#F07900"/>
</linearGradient>
<linearGradient id="paint4_linear_6558_83328" x1="67.0005" y1="45.3398" x2="67.0005" y2="46.711" gradientUnits="userSpaceOnUse">
<stop stop-color="#F39433"/>
<stop offset="1" stop-color="#F07900"/>
</linearGradient>
<linearGradient id="paint5_linear_6558_83328" x1="66.9979" y1="46.2656" x2="66.9979" y2="47.2556" gradientUnits="userSpaceOnUse">
<stop stop-color="#F39433"/>
<stop offset="1" stop-color="#F07900"/>
</linearGradient>
<linearGradient id="paint6_linear_6558_83328" x1="54.2149" y1="42.7852" x2="54.2149" y2="51.6329" gradientUnits="userSpaceOnUse">
<stop stop-color="#F39433"/>
<stop offset="1" stop-color="#F07900"/>
</linearGradient>
</defs>
</svg>
